/* XPM */
static char *j[] = {
/* columns rows colors chars-per-pixel */
"32 32 24 1",
"  c black",
". c #191919191919",
"X c gray20",
"o c #000000007F7F",
"O c #00007F7F0000",
"+ c #00007F7F7F7F",
"@ c #7F7F00000000",
"# c #7F7F00007F7F",
"$ c #7F7F7F7F0000",
"% c #4C4C4C4C4C4C",
"& c #666666666767",
"* c gray50",
"= c blue",
"- c green",
"; c cyan",
": c red",
"> c magenta",
", c yellow",
"< c gray60",
"1 c #B2B2B2B2B2B2",
"2 c gray80",
"3 c gray90",
"4 c gray100",
"5 c None",
/* pixels */
"55555555555555555555555555555555",
"55555555555555555555555555555555",
"5555555555555555555555 $X@X$X.55",
"5555555555555555555555X121211X55",
"55555555555555555555  X222,21$ 5",
"55555555555555555555  @123321@ 5",
"55555555555 XXXXX@.5  X11,111X 5",
"55555555555@<2,112$.  .XXXX@X. 5",
"555555555  .<22222&   5 . ..  55",
"555555555  .,22222&   X$$&$$&@55",
"555555555  .<112,2&   $122211X 5",
"555555555   XX@XX@.   @122121X 5",
"555555555  55      5  X122221@ 5",
"5X$$&&$%.  55555555555X<<,<<,X 5",
"5&22222<   55555555555 .@ . . 55",
"5&22222,.  555555555555555555555",
"5&22222<.  55555555555.@XX@XX.55",
"5$<<<,<*.  55555555555X1111,1@55",
"5.. @ .    555555555  $222212X 5",
"555555555    ..... 5  .1,2221X 5",
"555555555  .$<<,<<$5  @11112,X 5",
"555555555   <21222&   .X$X@XX. 5",
"555555555  .<22212$.  5       55",
"55555555555 <2,2,2&.  .&$&$&&X55",
"55555555555.&$&&&&%   X,222,1X.5",
"5555555555555.  .  5  X121221@ 5",
"55555555555555555555  X112131X 5",
"5555555555555555555555@<,*<:<X 5",
"5555555555555555555555 . .....55",
"55555555555555555555555555555555",
"55555555555555555555555555555555",
"55555555555555555555555555555555"
};
