/* XPM */
static char * bad_xpm[] = {
        "10 10 21 1",
        " 	c None",
        ".	c #A21818",
        "+	c #A31818",
        "@	c #9A1717",
        "#	c #C80E0E",
        "$	c #C90F0F",
        "%	c #CA0C0C",
        "&	c #E60606",
        "*	c #F40202",
        "=	c #DE0909",
        "-	c #8F0D0D",
        ";	c #F90101",
        ">	c #FF0000",
        ",	c #F80101",
        "'	c #E50707",
        ")	c #C20E0E",
        "!	c #C10E0E",
        "~	c #000000",
        "{	c #810C0C",
        "]	c #C80C0C",
        "^	c #130202",
        "  .++@    ",
        " #$$$$%   ",
        ".$&&&*=-  ",
        "+$&;>,')  ",
        "+$&>>,'!~ ",
        "@$*,,*={~ ",
        " %=''=]^  ",
        "  -)!{^~  ",
        "    ~~    ",
        "          "
};
