/* XPM */
static char * good_xpm[] = {
        "10 10 24 1",
        " 	c None",
        ".	c #0EB40E",
        "+	c #11A711",
        "@	c #11A211",
        "#	c #0DA10D",
        "$	c #09CB09",
        "%	c #0BCC0B",
        "&	c #08CD08",
        "*	c #098609",
        "=	c #05E705",
        "-	c #02F502",
        ";	c #07E007",
        ">	c #0A9D0A",
        ",	c #01F901",
        "'	c #00FF00",
        ")	c #01F801",
        "!	c #05E605",
        "~	c #0AC40A",
        "{	c #0AC30A",
        "]	c #000000",
        "^	c #099209",
        "/	c #08CB08",
        "(	c #033403",
        "_	c #098509",
        " .+++@#   ",
        ".$%%%%&*  ",
        "+%===-;>  ",
        "+%=,')!~  ",
        "+%='')!{] ",
        "@%-))-;^] ",
        "#&;!!;/(  ",
        " _>~{^(]  ",
        "    ]]    ",
        "          "
};
