/* XPM */
static char * earth_xpm[] = {
"21 21 303 2",
"  	c None",
". 	c #000000",
"+ 	c #10212D",
"@ 	c #201765",
"# 	c #281C81",
"$ 	c #3D85A0",
"% 	c #37D36B",
"& 	c #23286C",
"* 	c #365C9B",
"= 	c #150649",
"- 	c #083E00",
"; 	c #12770E",
"> 	c #289A46",
", 	c #42B4A1",
"' 	c #34BB6A",
") 	c #3B6AA2",
"! 	c #2EFA3A",
"~ 	c #34E458",
"{ 	c #526EF9",
"] 	c #2FFF39",
"^ 	c #5369FF",
"/ 	c #23F414",
"( 	c #179811",
"_ 	c #198115",
": 	c #28FF1F",
"< 	c #28FF25",
"[ 	c #28FF23",
"} 	c #26E819",
"| 	c #2F7A55",
"1 	c #26EC17",
"2 	c #1E7D27",
"3 	c #1A0849",
"4 	c #20A803",
"5 	c #30E749",
"6 	c #2DFB34",
"7 	c #27F817",
"8 	c #20D217",
"9 	c #072603",
"0 	c #147F12",
"a 	c #2AFF22",
"b 	c #26FF1E",
"c 	c #63DC40",
"d 	c #26FF17",
"e 	c #1F1A40",
"f 	c #584DFF",
"g 	c #3B8C90",
"h 	c #2F2081",
"i 	c #5853FF",
"j 	c #2E9760",
"k 	c #414ECB",
"l 	c #5061F9",
"m 	c #203739",
"n 	c #39B77C",
"o 	c #22D018",
"p 	c #062005",
"q 	c #09150C",
"r 	c #22DC1C",
"s 	c #30FF25",
"t 	c #2CFF21",
"u 	c #3CFA31",
"v 	c #3C9D98",
"w 	c #20175F",
"x 	c #585AFF",
"y 	c #4A48EB",
"z 	c #242466",
"A 	c #37D46E",
"B 	c #30DF2B",
"C 	c #2DE42D",
"D 	c #4F5FFD",
"E 	c #4656DD",
"F 	c #1B5237",
"G 	c #29FF1A",
"H 	c #09410F",
"I 	c #137C11",
"J 	c #29FF1C",
"K 	c #3E7729",
"L 	c #348220",
"M 	c #1E963A",
"N 	c #183832",
"O 	c #2C2680",
"P 	c #2E2D86",
"Q 	c #271C74",
"R 	c #0F7300",
"S 	c #25FF1A",
"T 	c #47F11D",
"U 	c #40F71A",
"V 	c #3BFD15",
"W 	c #43FD14",
"X 	c #2AF733",
"Y 	c #32E84E",
"Z 	c #33B06B",
"` 	c #187F15",
" .	c #3DA198",
"..	c #1B0650",
"+.	c #4542DC",
"@.	c #4454DC",
"#.	c #1B2C41",
"$.	c #3E3FC0",
"%.	c #4142CB",
"&.	c #3D51B6",
"*.	c #1FE80C",
"=.	c #78D64E",
"-.	c #24FF1E",
";.	c #26FF20",
">.	c #31FA21",
",.	c #33F91F",
"'.	c #31F32F",
").	c #3CA796",
"!.	c #4852E1",
"~.	c #0A0011",
"{.	c #140C31",
"].	c #4D8DD9",
"^.	c #26F91D",
"/.	c #1F0C5C",
"(.	c #5751FF",
"_.	c #5854FF",
":.	c #1E1854",
"<.	c #4F53FB",
"[.	c #5458FF",
"}.	c #4944E7",
"|.	c #164D2A",
"1.	c #2AFF2C",
"2.	c #24FF13",
"3.	c #27FF1A",
"4.	c #27FF1E",
"5.	c #25FF1E",
"6.	c #6CD546",
"7.	c #23FF0D",
"8.	c #3CC583",
"9.	c #322E9A",
"0.	c #140E2E",
"a.	c #5A55FF",
"b.	c #4880CD",
"c.	c #32916F",
"d.	c #3EB095",
"e.	c #3FB495",
"f.	c #20115D",
"g.	c #4F4EFC",
"h.	c #5558FF",
"i.	c #494BE5",
"j.	c #281D77",
"k.	c #4E7CE4",
"l.	c #4982D3",
"m.	c #2C5A52",
"n.	c #33F427",
"o.	c #31E42A",
"p.	c #23FF12",
"q.	c #5168F7",
"r.	c #312D97",
"s.	c #090407",
"t.	c #1D1950",
"u.	c #1B1149",
"v.	c #21A40D",
"w.	c #26FF16",
"x.	c #25FF17",
"y.	c #159607",
"z.	c #0E410C",
"A.	c #1B0F4D",
"B.	c #17123D",
"C.	c #0B0612",
"D.	c #1C174C",
"E.	c #1C154F",
"F.	c #150119",
"G.	c #34E559",
"H.	c #24FF18",
"I.	c #73D849",
"J.	c #2A8C43",
"K.	c #201159",
"L.	c #110B2C",
"M.	c #14112E",
"N.	c #5B5FFF",
"O.	c #5561FF",
"P.	c #25FF10",
"Q.	c #48F121",
"R.	c #52F121",
"S.	c #2AFF2B",
"T.	c #4A8FCD",
"U.	c #4C4CEE",
"V.	c #272670",
"W.	c #585DFF",
"X.	c #595EFF",
"Y.	c #190948",
"Z.	c #4B82DB",
"`.	c #25FF18",
" +	c #1FDF15",
".+	c #3446A0",
"++	c #43B7A5",
"@+	c #33309C",
"#+	c #13102C",
"$+	c #4D50F0",
"%+	c #5450FF",
"&+	c #215728",
"*+	c #43C54E",
"=+	c #25FF1D",
"-+	c #29FF25",
";+	c #4792C4",
">+	c #4B4BED",
",+	c #27266F",
"'+	c #595DFF",
")+	c #1F0E50",
"!+	c #30F724",
"~+	c #27D11E",
"{+	c #239B16",
"]+	c #4F77EC",
"^+	c #2B267F",
"/+	c #100E26",
"(+	c #201D5A",
"_+	c #0A0019",
":+	c #24C731",
"<+	c #6CDB43",
"[+	c #296E2E",
"}+	c #291D67",
"|+	c #0C0A1A",
"1+	c #201F5B",
"2+	c #201F5D",
"3+	c #12001B",
"4+	c #27FF15",
"5+	c #34F525",
"6+	c #1E5E11",
"7+	c #0C3700",
"8+	c #1C2549",
"9+	c #030000",
"0+	c #242367",
"a+	c #4F53F9",
"b+	c #312D94",
"c+	c #3937B6",
"d+	c #2EFF15",
"e+	c #2CF837",
"f+	c #4344C9",
"g+	c #5252FF",
"h+	c #4347D3",
"i+	c #242264",
"j+	c #5256FF",
"k+	c #484CE3",
"l+	c #2D2269",
"m+	c #30F248",
"n+	c #4794C2",
"o+	c #180C40",
"p+	c #5453FF",
"q+	c #3D3DBB",
"r+	c #4648D9",
"s+	c #484BE3",
"t+	c #281B7C",
"u+	c #38CE74",
"v+	c #459AB8",
"w+	c #16093F",
"x+	c #575BFF",
"y+	c #494CE3",
"z+	c #252369",
"A+	c #333499",
"B+	c #3B37B6",
"C+	c #5855FF",
"D+	c #3933B0",
"E+	c #3735A7",
"F+	c #5A5FFF",
"G+	c #120F28",
"H+	c #18163F",
"I+	c #4C50F2",
"J+	c #170E3A",
"K+	c #3E7AA8",
"L+	c #40AA9B",
"M+	c #140E34",
"N+	c #494DE8",
"O+	c #3E40BE",
"P+	c #201E57",
"Q+	c #4A4EEA",
"R+	c #2B2B80",
"S+	c #323295",
"T+	c #494DE6",
"U+	c #1A1947",
"V+	c #4649D9",
"W+	c #30308F",
"X+	c #040000",
"Y+	c #221E5F",
"Z+	c #130923",
"`+	c #3C8F94",
" @	c #1F235C",
".@	c #100E36",
"+@	c #1E1D65",
"@@	c #0B0824",
"#@	c #252472",
"$@	c #0D091B",
"%@	c #1F1C53",
"&@	c #1D1B50",
"*@	c #070204",
"=@	c #1A1844",
"-@	c #0A030F",
";@	c #3838BA",
">@	c #887DA9",
",@	c #3C3B9B",
"'@	c #ADADDF",
")@	c #8887D5",
"!@	c #5C61FF",
"~@	c #2B2965",
"{@	c #5357FF",
"]@	c #100E23",
"^@	c #020000",
"/@	c #2E2727",
"(@	c #7E7879",
"_@	c #797573",
":@	c #767373",
"<@	c #7C7875",
"[@	c #5C5957",
"                . . . .                   ",
"            + @ # $ % & * = -             ",
"        ; > , ' ) ! ~ { ] ^ / (           ",
"      _ : < [ } | 1 2 3 4 5 6 7 8 9       ",
"    0 a b c d e f g h i j k l m n o p     ",
"  q r s t u v w x y z A B C D E F G H     ",
"  I J K L M N O P Q R S T U V W X Y Z .   ",
"  `  ...+.@.#.$.%.&.*.=.-.;.>.,.'.).!.~.  ",
"{.].^./.(._.:.<.[.}.|.1.2.3.4.5.6.7.8.9.  ",
"0.a.b.c.d.e.f.g.h.i.j.k.l.m.n.o.: p.q.r.  ",
"s.t.u.v.w.x.y.z.A.B.C.D.E.F.G.H.I.J.K.L.  ",
"M.N.O.P.4.Q.R.S.T.U.V.W.X.Y.Z.`. +.+++@+  ",
"#+$+%+&+*+=+=+-+;+>+,+W.'+)+J !+~+{+]+^+  ",
"  /+(+_+:+<+`.[+}+D.|+1+2+3+4+5+6+7+8+9+  ",
"  0+a+b+c+d+e+f+g+h+i+j+k+l+m+n+o+p+q+    ",
"    r+s+t+u+v+w+x+y+z+W.A+B+C+D+E+F+G+    ",
"    H+I+J+K+L+M+N+O+P+Q+R+S+T+U+V+W+      ",
"      X+Y+Z+`+ @.@+@@@#@$@R+%@&@*@        ",
"        =@-@;@>@,@'@)@!@~@{@]@#+          ",
"            ^@/@(@_@:@<@[@9+              ",
"                                          "};
