/* XPM */
static char * fam_xpm[] = {
"24 20 3 1",
" 	c None",
".	c #8080FF",
"+	c #32029C",
"                        ",
"                        ",
"                        ",
"    .+.                 ",
"    +++           .+.   ",
"    .+.           +++   ",
"                  .+.   ",
"   .+++.   .+.          ",
"  .+++++.  +++   .+++.  ",
"  +++++++  .+.  +++++++ ",
"  + +++ +       +.+++.+ ",
"  + +++ + .+++. + +++ + ",
"  + +++ + +++++ + +++ + ",
"    +++   +++++  .+++.  ",
"    + +   +++++ .+++++. ",
"    + +   .+++. +++++++ ",
"    + +    + +    + +   ",
"    + +    + +    + +   ",
"    + +    + +    + +   ",
"                        "};
