/* XPM */
static char * icon_family01b_24x24_xpm[] = {
"24 24 21 1",
" 	c None",
".	c #DDD5C1",
"+	c #FFFFFF",
"@	c #B0A384",
"#	c #B5A781",
"$	c #0E0400",
"%	c #000000",
"&	c #5D4D2D",
"*	c #5B4103",
"=	c #EFEBDB",
"-	c #9B9791",
";	c #9C9892",
">	c #8F8DA5",
",	c #302157",
"'	c #A8A7BB",
")	c #7B76AE",
"!	c #7C77AF",
"~	c #7C75AD",
"{	c #B0B0E2",
"]	c #5E4D2A",
"^	c #646464",
"                        ",
"                        ",
".+++++++++++++++++++++@ ",
"#$%%%%%%%%%%%%%%%%%%%&*%",
"#*===================#*%",
"#*====--;--------====#*%",
"#*===-+++++++++++-===#*%",
"#*==-++++++++++++++==#*%",
"#*=-++>,>+++++++++++=#*%",
"#*=-++,,,++++++>,>++=#*%",
"#*=-++>,>++++++,,,++=#*%",
"#*=-++')'+>,>++>,>++=#*%",
"#*=-++!!!+,,,++'~'++=#*%",
"#*=-+>!!!>{,{+>!!!>+=#*%",
"#*=-+!!!!!'!'+>!!!>+=#*%",
"#*==-!!!!'!!!'!!!!!==#*%",
"#*===-!!'!!!!!'!!!===#*%",
"#*====!!!!!!!!!!!====#*%",
"#*===================#*%",
"#@+++++++++++++++++++.*%",
"]%%%%%%%%%%%%%%%%%%%%%$%",
"  %%%%%%%%%%%%%%%%%%%%%%",
"   ^^^^^^^^^^^^^^^^^^^^^",
"                        "};
