/* XPM */
static char * icon_people03b_24x24_xpm[] = {
"24 24 25 1",
" 	c None",
".	c #DBD8D1",
"+	c #FBFBFB",
"@	c #B9B4A9",
"#	c #BBB6A8",
"$	c #50493B",
"%	c #433C31",
"&	c #7F796D",
"*	c #776E57",
"=	c #F0E7C8",
"-	c #000000",
";	c #9B9791",
">	c #FFFFFF",
",	c #B9B7AB",
"'	c #929081",
")	c #898777",
"!	c #6E6951",
"~	c #817E69",
"{	c #8E8C7B",
"]	c #868474",
"^	c #A19E8F",
"/	c #7F796C",
"(	c #423C30",
"_	c #50493A",
":	c #646464",
"                        ",
"   .++++++++++++++++@   ",
"   #$%%%%%%%%%%%%%%&*   ",
"   #*==============#*-  ",
"   #*====;;;;;;====#*-  ",
"   #*===;>>>>>>;===#*-  ",
"   #*==;>>>,,>>>>==#*-  ",
"   #*=;>>>,'',>>>>=#*-  ",
"   #*=;>>>)!!~>>>>=#*-  ",
"   #*=;>>>!!!!>>>>=#*-  ",
"   #*=;>>>{!!~>>>>=#*-  ",
"   #*=;>>>>!!>>>>>=#*-  ",
"   #*=;>>>,!!,>>>>=#*-  ",
"   #*=;>>,]!!]^>>>=#*-  ",
"   #*=;>,]!!!!]^>>=#*-  ",
"   #*==^!!!!!!!!^==#*-  ",
"   #*===^!!!!!!^===#*-  ",
"   #*====^^^^^^====#*-  ",
"   #*==============#*-  ",
"   #@++++++++++++++.*-  ",
"   /((((((((((((((((_-  ",
"    ------------------  ",
"     :::::::::::::::::  ",
"                        "};
