<?xml version="1.0" encoding="UTF-8" standalone="no"?>
<!-- Created with Inkscape (http://www.inkscape.org/) -->

<svg
   xmlns:dc="http://purl.org/dc/elements/1.1/"
   xmlns:cc="http://creativecommons.org/ns#"
   xmlns:rdf="http://www.w3.org/1999/02/22-rdf-syntax-ns#"
   xmlns:svg="http://www.w3.org/2000/svg"
   xmlns="http://www.w3.org/2000/svg"
   xmlns:xlink="http://www.w3.org/1999/xlink"
   xmlns:sodipodi="http://sodipodi.sourceforge.net/DTD/sodipodi-0.dtd"
   xmlns:inkscape="http://www.inkscape.org/namespaces/inkscape"
   width="48"
   height="48"
   id="svg2455"
   sodipodi:version="0.32"
   inkscape:version="0.47pre4 r22446"
   sodipodi:docname="gramps-geo.svg"
   inkscape:export-filename="/home/benny/gramps/trunk/src/images/16x16/gramps-geo.png"
   inkscape:export-xdpi="30"
   inkscape:export-ydpi="30"
   inkscape:output_extension="org.inkscape.output.svg.inkscape"
   version="1.0">
  <defs
     id="defs3">
    <filter
       id="filter3363">
      <feGaussianBlur
         id="feGaussianBlur3365"
         stdDeviation="0.60894277"
         inkscape:collect="always" />
    </filter>
    <linearGradient
       id="linearGradient3315">
      <stop
         id="stop3317"
         style="stop-color:#000000;stop-opacity:1"
         offset="0" />
      <stop
         id="stop3319"
         style="stop-color:#000000;stop-opacity:0"
         offset="1" />
    </linearGradient>
    <linearGradient
       x1="64.191734"
       y1="131.89085"
       x2="63.436371"
       y2="103.34124"
       id="linearGradient3321"
       xlink:href="#linearGradient3315"
       gradientUnits="userSpaceOnUse" />
    <linearGradient
       id="linearGradient3335">
      <stop
         id="stop3337"
         style="stop-color:#a40000;stop-opacity:1;"
         offset="0" />
      <stop
         id="stop3343"
         style="stop-color:#cc0000;stop-opacity:1;"
         offset="0.72543192" />
      <stop
         id="stop3349"
         style="stop-color:#ef2929;stop-opacity:0.53333336;"
         offset="0.85599172" />
      <stop
         id="stop3339"
         style="stop-color:#ef2929;stop-opacity:1;"
         offset="1" />
    </linearGradient>
    <radialGradient
       cx="64.650017"
       cy="125.64118"
       r="65.385895"
       fx="64.650017"
       fy="125.64118"
       id="radialGradient3347"
       xlink:href="#linearGradient3335"
       gradientUnits="userSpaceOnUse"
       gradientTransform="matrix(1.006948,-4.6236582e-2,1.7086631e-2,0.607885,-2.4409328,49.337379)" />
    <radialGradient
       cx="413.0303"
       cy="164.8445"
       r="62.672604"
       fx="413.0303"
       fy="164.8445"
       id="radialGradient3279"
       xlink:href="#linearGradient3263"
       gradientUnits="userSpaceOnUse"
       gradientTransform="matrix(1.0528913,0.2432999,-0.1328866,0.5750727,-7.0536693e-2,-20.362734)" />
    <filter
       id="filter3295">
      <feGaussianBlur
         id="feGaussianBlur3297"
         stdDeviation="2.1079256"
         inkscape:collect="always" />
    </filter>
    <linearGradient
       id="linearGradient3263">
      <stop
         id="stop3271"
         style="stop-color:#ef2929;stop-opacity:1;"
         offset="0" />
      <stop
         id="stop3267"
         style="stop-color:#a40000;stop-opacity:1;"
         offset="1" />
    </linearGradient>
    <radialGradient
       cx="65.121109"
       cy="105.03513"
       r="64.49913"
       fx="65.121109"
       fy="105.03513"
       id="radialGradient3269"
       xlink:href="#linearGradient3263"
       gradientUnits="userSpaceOnUse"
       gradientTransform="matrix(0.8669623,1.2506865e-2,-4.5610337e-3,0.634702,9.1000894,44.028236)" />
    <linearGradient
       id="linearGradient3255">
      <stop
         id="stop3257"
         style="stop-color:#ffffff;stop-opacity:1"
         offset="0" />
      <stop
         id="stop3259"
         style="stop-color:#848484;stop-opacity:1"
         offset="1" />
    </linearGradient>
    <radialGradient
       cx="280.56277"
       cy="429.61514"
       r="50.012135"
       fx="280.56277"
       fy="429.61514"
       id="radialGradient3261"
       xlink:href="#linearGradient3255"
       gradientUnits="userSpaceOnUse"
       gradientTransform="matrix(0.3285219,0.1205343,-2.2582858,6.155061,1172.647,-2214.2386)" />
    <linearGradient
       id="linearGradient2563">
      <stop
         id="stop2565"
         offset="0"
         style="stop-color:#e2e2e2;stop-opacity:1;" />
      <stop
         id="stop2567"
         offset="1.0000000"
         style="stop-color:#9f9f9f;stop-opacity:1.0000000;" />
    </linearGradient>
    <linearGradient
       id="linearGradient2526">
      <stop
         id="stop2528"
         offset="0.0000000"
         style="stop-color:#e7ebeb;stop-opacity:1.0000000;" />
      <stop
         style="stop-color:#e6ebeb;stop-opacity:1.0000000;"
         offset="0.50000000"
         id="stop2534" />
      <stop
         id="stop2530"
         offset="1.0000000"
         style="stop-color:#ffffff;stop-opacity:1.0000000;" />
    </linearGradient>
    <linearGradient
       id="linearGradient2551"
       inkscape:collect="always">
      <stop
         id="stop2553"
         offset="0"
         style="stop-color:#000000;stop-opacity:1;" />
      <stop
         id="stop2555"
         offset="1"
         style="stop-color:#000000;stop-opacity:0;" />
    </linearGradient>
    <linearGradient
       inkscape:collect="always"
       xlink:href="#linearGradient2551"
       id="linearGradient2463"
       x1="18.431738"
       y1="23.974861"
       x2="48.287315"
       y2="39.115234"
       gradientUnits="userSpaceOnUse"
       gradientTransform="translate(-139.75386,143.46545)" />
    <linearGradient
       id="linearGradient5208">
      <stop
         style="stop-color:#edd400;stop-opacity:1;"
         offset="0"
         id="stop5210" />
      <stop
         style="stop-color:#c4a000;stop-opacity:1;"
         offset="1"
         id="stop5212" />
    </linearGradient>
    <inkscape:path-effect
       effect="bend_path"
       id="path-effect5195"
       bendpath="m 9.8932522,26.984367 11.6279458,0"
       prop_scale="1" />
    <inkscape:path-effect
       effect="bend_path"
       id="path-effect5193"
       bendpath="M 53.1496,169.713 L 141.732,169.713 "
       prop_scale="1" />
    <inkscape:perspective
       sodipodi:type="inkscape:persp3d"
       inkscape:vp_x="0 : 177.16536 : 1"
       inkscape:vp_y="0 : 1000 : 0"
       inkscape:vp_z="354.33072 : 177.16536 : 1"
       inkscape:persp3d-origin="177.16536 : 118.11024 : 1"
       id="perspective2601" />
    <linearGradient
       id="linearGradient2419">
      <stop
         style="stop-color: rgb(0, 0, 0); stop-opacity: 0.505155;"
         offset="0.0000000"
         id="stop2420" />
      <stop
         style="stop-color: rgb(0, 0, 0); stop-opacity: 0;"
         offset="1.0000000"
         id="stop2421" />
    </linearGradient>
    <linearGradient
       inkscape:collect="always"
       xlink:href="#linearGradient2419"
       id="linearGradient2422"
       gradientTransform="scale(1.19593,0.836169)"
       x1="156.33752"
       y1="184.92068"
       x2="264.56921"
       y2="184.92068"
       gradientUnits="userSpaceOnUse" />
    <linearGradient
       id="linearGradient2411">
      <stop
         style="stop-color: rgb(255, 255, 255); stop-opacity: 1;"
         offset="0.0000000"
         id="stop2412" />
      <stop
         style="stop-color: rgb(255, 255, 255); stop-opacity: 0;"
         offset="1.0000000"
         id="stop2413" />
    </linearGradient>
    <radialGradient
       inkscape:collect="always"
       xlink:href="#linearGradient2411"
       id="radialGradient2415"
       cx="212.59842"
       cy="70.866119"
       fx="212.59842"
       fy="70.866119"
       r="35.433071"
       gradientUnits="userSpaceOnUse" />
    <linearGradient
       inkscape:collect="always"
       xlink:href="#linearGradient1767"
       id="linearGradient1779"
       gradientUnits="userSpaceOnUse"
       gradientTransform="scale(0.689104,1.45116)"
       x1="414.13153"
       y1="240.14357"
       x2="302.99097"
       y2="240.80186" />
    <linearGradient
       id="linearGradient1767">
      <stop
         style="stop-color: rgb(63, 51, 24); stop-opacity: 1;"
         offset="0.0000000"
         id="stop1768" />
      <stop
         style="stop-color: rgb(129, 95, 14); stop-opacity: 1;"
         offset="1.0000000"
         id="stop1769" />
    </linearGradient>
    <linearGradient
       inkscape:collect="always"
       xlink:href="#linearGradient1767"
       id="linearGradient1778"
       gradientUnits="userSpaceOnUse"
       gradientTransform="matrix(0.697599,0,0,1.47183,0,-11.8264)"
       x1="299.37338"
       y1="252.27031"
       x2="411.72696"
       y2="252.27031" />
    <linearGradient
       id="linearGradient1754">
      <stop
         style="stop-color: rgb(116, 116, 116); stop-opacity: 1;"
         offset="0.0000000"
         id="stop1755" />
      <stop
         style="stop-color: rgb(190, 190, 190); stop-opacity: 1;"
         offset="0.50000000"
         id="stop1757" />
      <stop
         style="stop-color: rgb(213, 213, 213); stop-opacity: 1;"
         offset="0.62500000"
         id="stop1759" />
      <stop
         style="stop-color: rgb(129, 129, 129); stop-opacity: 1;"
         offset="0.75000000"
         id="stop1758" />
      <stop
         style="stop-color: rgb(195, 195, 195); stop-opacity: 1;"
         offset="1.0000000"
         id="stop1756" />
    </linearGradient>
    <linearGradient
       inkscape:collect="always"
       xlink:href="#linearGradient1754"
       id="linearGradient1777"
       gradientUnits="userSpaceOnUse"
       gradientTransform="scale(1.00007,0.999929)"
       x1="150.49463"
       y1="42.808048"
       x2="345.53265"
       y2="242.17987" />
    <pattern
       patternUnits="userSpaceOnUse"
       width="28.945312"
       height="33.076172"
       patternTransform="translate(190.49, 70.8434)"
       id="pattern2568">
      <text
         xml:space="preserve"
         style="font-style: normal; font-weight: normal; fill: rgb(0, 0, 0); fill-opacity: 1; stroke: none; stroke-width: 1pt; stroke-linecap: butt; stroke-linejoin: miter; stroke-opacity: 1; font-family: Bitstream Vera Sans;"
         x="189.699"
         y="67.7497"
         id="text2569"
         transform="translate(-190.49, -70.8434)"><tspan
           sodipodi:role="line"
           id="tspan2570"
           x="189.699"
           y="67.7497" /><tspan
           sodipodi:role="line"
           id="tspan2576"
           x="189.699"
           y="79.7497">0010</tspan><tspan
           sodipodi:role="line"
           id="tspan2578"
           x="189.699"
           y="91.7497">0100</tspan><tspan
           sodipodi:role="line"
           id="tspan2580"
           x="189.699"
           y="103.75">0111</tspan><tspan
           sodipodi:role="line"
           id="tspan2582"
           x="189.699"
           y="115.75" /></text>
    </pattern>
    <pattern
       patternUnits="userSpaceOnUse"
       width="32.232422"
       height="37.876175"
       patternTransform="translate(183.767, 59.4684)"
       id="pattern2606">
      <text
         xml:space="preserve"
         style="font-style: normal; font-weight: bold; fill: rgb(0, 0, 0); fill-opacity: 1; stroke: none; stroke-width: 1pt; stroke-linecap: butt; stroke-linejoin: miter; stroke-opacity: 1; font-family: Bitstream Vera Sans; font-stretch: normal; font-variant: normal; text-anchor: middle;"
         x="189.699"
         y="67.7497"
         id="text2607"
         transform="translate(-173.586, -58.8434)"
         sodipodi:linespacing="120%"><tspan
           x="189.699"
           y="67.7497"
           sodipodi:role="line"
           id="tspan2608">0010</tspan><tspan
           x="189.699"
           y="82.1497"
           sodipodi:role="line"
           id="tspan2610">0100</tspan><tspan
           x="189.699"
           y="96.5497"
           sodipodi:role="line"
           id="tspan2612">0111</tspan></text>
    </pattern>
    <pattern
       patternUnits="userSpaceOnUse"
       width="32.232422"
       height="28.276169"
       patternTransform="translate(183.767, 59.4684)"
       id="pattern2623">
      <text
         xml:space="preserve"
         style="font-style: normal; font-variant: normal; font-weight: bold; font-stretch: normal; fill: rgb(0, 0, 0); fill-opacity: 1; stroke: none; stroke-width: 1pt; stroke-linecap: butt; stroke-linejoin: miter; stroke-opacity: 1; font-family: Bitstream Vera Sans; text-anchor: middle;"
         x="189.699"
         y="67.7497"
         id="text2624"
         transform="translate(-173.586, -58.8434)"
         sodipodi:linespacing="80%"><tspan
           x="189.699"
           y="67.7497"
           sodipodi:role="line"
           id="tspan2625">0010</tspan><tspan
           x="189.699"
           y="77.3497"
           sodipodi:role="line"
           id="tspan2627">0100</tspan><tspan
           x="189.699"
           y="86.9497"
           sodipodi:role="line"
           id="tspan2629">0111</tspan></text>
    </pattern>
    <pattern
       patternUnits="userSpaceOnUse"
       width="32.232422"
       height="25.876175"
       patternTransform="translate(183.767, 59.4684)"
       id="pattern2639">
      <text
         xml:space="preserve"
         style="font-style: normal; font-variant: normal; font-weight: bold; font-stretch: normal; fill: rgb(0, 0, 0); fill-opacity: 1; stroke: none; stroke-width: 1pt; stroke-linecap: butt; stroke-linejoin: miter; stroke-opacity: 1; font-family: Bitstream Vera Sans; text-anchor: middle;"
         x="189.699"
         y="67.7497"
         id="text2640"
         transform="translate(-173.586, -58.8434)"
         sodipodi:linespacing="70%"><tspan
           x="189.699"
           y="67.7497"
           sodipodi:role="line"
           id="tspan2641">0010</tspan><tspan
           x="189.699"
           y="76.1497"
           sodipodi:role="line"
           id="tspan2643">0100</tspan><tspan
           x="189.699"
           y="84.5497"
           sodipodi:role="line"
           id="tspan2645">0111</tspan></text>
    </pattern>
    <pattern
       patternUnits="userSpaceOnUse"
       width="96.697266"
       height="77.628510"
       patternTransform="translate(151.54, 41.6559)"
       id="pattern2692">
      <text
         xml:space="preserve"
         style="font-style: normal; font-variant: normal; font-weight: bold; font-stretch: normal; fill: rgb(0, 0, 0); fill-opacity: 1; stroke: none; stroke-width: 1pt; stroke-linecap: butt; stroke-linejoin: miter; stroke-opacity: 1; font-family: Bitstream Vera Sans; text-anchor: middle;"
         x="189.699"
         y="67.7497"
         id="text2693"
         transform="translate(-141.359, -41.0309)"
         sodipodi:linespacing="70%"><tspan
           x="189.699"
           y="67.7497"
           sodipodi:role="line"
           id="tspan2694">0010</tspan><tspan
           x="189.699"
           y="92.9497"
           sodipodi:role="line"
           id="tspan2696">0100</tspan><tspan
           x="189.699"
           y="118.15"
           sodipodi:role="line"
           id="tspan2698">0111</tspan></text>
    </pattern>
    <radialGradient
       inkscape:collect="always"
       xlink:href="#linearGradient3255"
       id="radialGradient6136"
       gradientUnits="userSpaceOnUse"
       gradientTransform="matrix(1.9301935e-2,7.0818572e-3,-0.132683,0.3616337,96.967332,-145.93804)"
       cx="280.56277"
       cy="429.61514"
       fx="280.56277"
       fy="429.61514"
       r="50.012135" />
    <radialGradient
       inkscape:collect="always"
       xlink:href="#linearGradient3263"
       id="radialGradient6138"
       gradientUnits="userSpaceOnUse"
       gradientTransform="matrix(4.6474545e-2,1.3024677e-2,-1.0144861e-2,3.1419814e-2,47.724874,-3.8199386)"
       cx="63.755711"
       cy="138.48218"
       fx="63.755711"
       fy="138.48218"
       r="64.49913" />
    <radialGradient
       inkscape:collect="always"
       xlink:href="#linearGradient3263"
       id="radialGradient6140"
       gradientUnits="userSpaceOnUse"
       gradientTransform="matrix(6.1861444e-2,1.4294812e-2,-7.8076027e-3,3.378775e-2,28.065633,-17.039329)"
       cx="409.43283"
       cy="180.7252"
       fx="409.43283"
       fy="180.7252"
       r="62.672604" />
    <radialGradient
       inkscape:collect="always"
       xlink:href="#linearGradient3255"
       id="radialGradient6160"
       gradientUnits="userSpaceOnUse"
       gradientTransform="matrix(1.9301935e-2,7.0818572e-3,-0.132683,0.3616337,96.967332,-145.93804)"
       cx="280.56277"
       cy="429.61514"
       fx="280.56277"
       fy="429.61514"
       r="50.012135" />
    <radialGradient
       inkscape:collect="always"
       xlink:href="#linearGradient3263"
       id="radialGradient6162"
       gradientUnits="userSpaceOnUse"
       gradientTransform="matrix(4.6474545e-2,1.3024677e-2,-1.0144861e-2,3.1419814e-2,47.724874,-3.8199386)"
       cx="63.755711"
       cy="138.48218"
       fx="63.755711"
       fy="138.48218"
       r="64.49913" />
    <radialGradient
       inkscape:collect="always"
       xlink:href="#linearGradient3263"
       id="radialGradient6164"
       gradientUnits="userSpaceOnUse"
       gradientTransform="matrix(6.1861444e-2,1.4294812e-2,-7.8076027e-3,3.378775e-2,28.065633,-17.039329)"
       cx="409.43283"
       cy="180.7252"
       fx="409.43283"
       fy="180.7252"
       r="62.672604" />
    <radialGradient
       inkscape:collect="always"
       xlink:href="#linearGradient3255"
       id="radialGradient5460"
       gradientUnits="userSpaceOnUse"
       gradientTransform="matrix(4.8455562e-2,1.3460504e-2,-0.3330873,0.6873581,179.34172,-262.32626)"
       cx="280.56277"
       cy="429.61514"
       fx="280.56277"
       fy="429.61514"
       r="50.012135" />
    <radialGradient
       inkscape:collect="always"
       xlink:href="#linearGradient3263"
       id="radialGradient5462"
       gradientUnits="userSpaceOnUse"
       gradientTransform="matrix(0.1166697,2.4756036e-2,-2.5467651e-2,5.9719719e-2,55.723498,7.7979733)"
       cx="63.755711"
       cy="138.48218"
       fx="63.755711"
       fy="138.48218"
       r="64.49913" />
    <radialGradient
       inkscape:collect="always"
       xlink:href="#linearGradient3263"
       id="radialGradient5464"
       gradientUnits="userSpaceOnUse"
       gradientTransform="matrix(0.1552969,2.7170185e-2,-1.96002e-2,6.4220461e-2,6.3709545,-17.328155)"
       cx="409.43283"
       cy="180.7252"
       fx="409.43283"
       fy="180.7252"
       r="62.672604" />
    <radialGradient
       inkscape:collect="always"
       xlink:href="#linearGradient3263"
       id="radialGradient6684"
       gradientUnits="userSpaceOnUse"
       gradientTransform="matrix(0.1130665,2.1822215e-2,-1.4270251e-2,5.15798e-2,45.365743,-14.98849)"
       cx="409.43283"
       cy="180.7252"
       fx="409.43283"
       fy="180.7252"
       r="62.672604" />
    <radialGradient
       inkscape:collect="always"
       xlink:href="#linearGradient3263"
       id="radialGradient6689"
       gradientUnits="userSpaceOnUse"
       gradientTransform="matrix(8.4943312e-2,1.9883248e-2,-1.8542146e-2,4.7964949e-2,61.988311,7.2714754)"
       cx="63.755711"
       cy="138.48218"
       fx="63.755711"
       fy="138.48218"
       r="64.49913" />
    <radialGradient
       inkscape:collect="always"
       xlink:href="#linearGradient3255"
       id="radialGradient6692"
       gradientUnits="userSpaceOnUse"
       gradientTransform="matrix(3.5278876e-2,1.0811042e-2,-0.2425097,0.5520638,152.18865,-211.26794)"
       cx="280.56277"
       cy="429.61514"
       fx="280.56277"
       fy="429.61514"
       r="50.012135" />
    <inkscape:perspective
       id="perspective5333"
       inkscape:persp3d-origin="0.5 : 0.33333333 : 1"
       inkscape:vp_z="1 : 0.5 : 1"
       inkscape:vp_y="0 : 1000 : 0"
       inkscape:vp_x="0 : 0.5 : 1"
       sodipodi:type="inkscape:persp3d" />
    <inkscape:perspective
       id="perspective5357"
       inkscape:persp3d-origin="0.5 : 0.33333333 : 1"
       inkscape:vp_z="1 : 0.5 : 1"
       inkscape:vp_y="0 : 1000 : 0"
       inkscape:vp_x="0 : 0.5 : 1"
       sodipodi:type="inkscape:persp3d" />
    <radialGradient
       inkscape:collect="always"
       xlink:href="#linearGradient3255"
       id="radialGradient5380"
       gradientUnits="userSpaceOnUse"
       gradientTransform="matrix(0.03527888,0.01081104,-0.2425097,0.5520638,152.18865,-211.26794)"
       cx="280.56277"
       cy="429.61514"
       fx="280.56277"
       fy="429.61514"
       r="50.012135" />
    <radialGradient
       inkscape:collect="always"
       xlink:href="#linearGradient3263"
       id="radialGradient5382"
       gradientUnits="userSpaceOnUse"
       gradientTransform="matrix(0.08494331,0.01988325,-0.01854215,0.04796495,61.988311,7.2714754)"
       cx="63.755711"
       cy="138.48218"
       fx="63.755711"
       fy="138.48218"
       r="64.49913" />
    <inkscape:perspective
       id="perspective2853"
       inkscape:persp3d-origin="0.5 : 0.33333333 : 1"
       inkscape:vp_z="1 : 0.5 : 1"
       inkscape:vp_y="0 : 1000 : 0"
       inkscape:vp_x="0 : 0.5 : 1"
       sodipodi:type="inkscape:persp3d" />
  </defs>
  <sodipodi:namedview
     id="base"
     pagecolor="#ffffff"
     bordercolor="#666666"
     borderopacity="1.0"
     inkscape:pageopacity="0.0"
     inkscape:pageshadow="2"
     inkscape:zoom="14.281752"
     inkscape:cx="32.114534"
     inkscape:cy="24.567557"
     inkscape:current-layer="layer4"
     showgrid="true"
     inkscape:grid-bbox="true"
     inkscape:grid-points="true"
     inkscape:window-width="1400"
     inkscape:window-height="1000"
     inkscape:window-x="-4"
     inkscape:window-y="-3"
     showguides="true"
     inkscape:guide-bbox="true"
     inkscape:window-maximized="1"
     inkscape:snap-nodes="true" />
  <metadata
     id="metadata4">
    <rdf:RDF>
      <cc:Work
         rdf:about="">
        <dc:format>image/svg+xml</dc:format>
        <dc:type
           rdf:resource="http://purl.org/dc/dcmitype/StillImage" />
        <dc:title></dc:title>
      </cc:Work>
    </rdf:RDF>
  </metadata>
  <g
     inkscape:groupmode="layer"
     id="layer4"
     inkscape:label="Map"
     style="display:inline">
    <g
       id="g5384"
       transform="matrix(-0.0462529,-1.0014923,1.1231331,-0.04124348,-4.4108026,49.940205)">
      <path
         id="path2670"
         d="M 4.3194641,7.8618014 C 18.555924,7.7862647 32.856027,6.5387482 47.092432,6.4995453 c -0.0843,3.0031609 -0.106112,7.6023897 0.260935,10.5873197 -1.658318,2.89611 -2.153268,6.247001 -3.287619,9.34816 0.946165,2.877206 1.767374,5.815802 2.565864,8.724178 0.354562,3.848309 0.279552,9.006356 0.639931,12.85431 C 31.767099,47.100116 16.25958,46.30966 0.7718911,45.048857 2.4332679,42.242736 3.1000322,39.002802 4.4485404,36.055824 3.460062,33.828765 2.6092477,31.53453 1.9758277,29.180707 3.6278646,25.419064 3.7691535,21.120868 5.6633076,17.457618 5.3880019,14.235289 4.8143299,11.054386 4.3194641,7.8618014 z"
         style="fill:#edd400;fill-opacity:1;stroke:#7c7c7c;stroke-width:0.82360929;stroke-linecap:butt;stroke-linejoin:miter;stroke-miterlimit:4;stroke-opacity:1"
         sodipodi:nodetypes="ccccccccccc" />
      <path
         sodipodi:nodetypes="csscscccsccscc"
         id="path2682"
         d="m 33.01552,45.990981 c -2.120326,-2.568582 -6.394869,-6.616357 -5.42859,-6.616357 1.464304,0 1.994993,-0.543233 0.614631,-0.543233 -0.458418,0 0.978079,-2.650198 1.445058,-3.388773 -0.0777,-1.505494 -0.178214,-1.905223 0.927706,-3.01775 0.573017,-0.57644 1.039831,-1.128717 0.525708,-2.644246 4.685703,2.610536 3.087104,-0.673964 2.486041,-2.035421 7.673716,-0.20121 -2.394051,-8.945821 5.047921,-8.134287 1.781092,1.195039 2.960663,2.172638 3.583026,2.928094 0.496089,0.602177 -0.214347,3.394172 -0.964561,4.831332 0.821849,2.482327 2.77621,6.366753 3.124266,7.96191 0.944079,0.675111 1.080035,0.520537 1.172037,1.841173 0.04485,0.643758 0.119433,5.702282 0.233574,9.483369 C 30.72285,45.96913 40.660618,46.471567 33.01552,45.990981 z"
         style="fill:#4e9a06;fill-opacity:1;fill-rule:evenodd;stroke:none" />
      <path
         sodipodi:nodetypes="ccscscscccc"
         id="path1901"
         d="m 15.249903,32.336144 c 0.447906,-1.822675 4.19115,-0.677191 4.389195,-3.667684 -0.891201,-5.217822 -2.458974,-9.070528 1.576885,-9.121297 3.133013,-0.03941 6.018316,4.744043 6.880361,8.503375 -0.198045,2.638197 0.41447,7.1509 0.41447,8.699854 0,2.69831 4.743163,8.57672 4.871775,9.282946 C 30.95948,45.886363 17.085627,45.105209 14.997691,44.85626 14.33263,44.77696 12.009068,43.701243 11.338926,43.701243 9.0155661,42.963587 6.9326761,41.100078 6.6792651,39.864884 c 1.123006,-3.344968 2.0750514,-0.97072 2.5251825,-4.154358 -1.662117,-2.061197 2.8075734,-4.767613 6.0454554,-3.374382 z"
         style="fill:#3465a4;fill-opacity:1;fill-rule:evenodd;stroke:none" />
      <path
         sodipodi:nodetypes="ccccccccccccccccccc"
         id="path2680"
         d="m 26.94833,12.457805 2.622904,-4.3008938 -0.231918,4.4016978 3.280495,-2.6455508 5.690714,-1.787493 -3.101539,4.4119908 3.092376,-1.635115 2.777298,1.614062 2.902233,-0.01041 c 0,0 -1.808072,3.215 -1.998893,4.225883 -1.140492,0.887628 -3.707295,2.248627 -3.707295,2.248627 l -2.862845,-2.042907 -2.822039,2.063298 -0.0077,2.347713 -5.68489,0.02039 5.699411,-4.421304 -5.069707,-0.115449 -1.523392,-4.261769 0.944834,-0.112767 z"
         style="fill:#75507b;fill-opacity:1;fill-rule:evenodd;stroke:none" />
      <g
         transform="matrix(0.1310541,0,0,0.1325049,3.2982481,5.140903)"
         id="g1922">
        <path
           sodipodi:nodetypes="ccccccccc"
           id="path1903"
           d="m 9.4051085,158.70149 c -7.4687986,-3.73286 26.7619155,0.74731 35.9871595,0.74731 16.055156,0 -0.744559,17.71653 15.58242,17.71653 9.202663,0 18.405326,0 27.607989,0 1.605012,0 -4.794742,-17.71653 8.299328,-17.71653 7.785065,0 6.325225,-35.43307 16.259915,-35.43307 3.55859,0 3.75283,-21.6988 4.06498,-25.101236 1.65221,-18.009074 24.52538,-25.224593 24.52538,-52.84473 0,-9.451083 0.75558,-4.654088 0.75558,-14.105171"
           style="fill:none;stroke:#826d35;stroke-width:0.375;stroke-linecap:butt;stroke-linejoin:miter;stroke-miterlimit:4;stroke-opacity:1;stroke-dasharray:none" />
        <path
           sodipodi:nodetypes="ccccccc"
           id="path1904"
           d="m 12.694651,144.52514 c 0,-11.9691 36.310932,-2.79288 48.280037,-2.79288 24.506532,0 12.142116,-6.2167 27.607989,-10.97543 13.435033,-4.13385 -15.933839,-24.45764 7.621831,-24.45764 3.019274,0 -4.077039,-17.716533 10.094702,-17.716533 14.3968,0 0,-28.793593 0,-43.190389 0,-3.319739 6.06047,-9.634448 2.20381,-15.157994"
           style="fill:none;stroke:#826d35;stroke-width:0.375;stroke-linecap:butt;stroke-linejoin:miter;stroke-miterlimit:4;stroke-opacity:1;stroke-dasharray:none" />
        <path
           sodipodi:nodetypes="cssssssssssssc"
           id="path1905"
           d="m 177.92093,31.168119 c 0,8.999419 -0.75558,4.547234 -0.75558,13.546652 0,18.554655 -17.71653,-1.23663 -17.71653,15.582421 0,10.810024 -0.37523,17.11971 -8.36709,21.002392 -6.39627,3.107494 -11.33526,20.047716 -16.93742,24.999606 -11.35798,10.03961 -16.93741,-2.26797 -16.93741,17.71654 0,4.25743 6.80885,6.54865 6.80885,10.80608 0,23.62236 -17.71654,15.64959 -17.71654,33.87483 0,10.95103 -17.716533,6.81419 -17.716533,26.18523 0,6.43778 -11.394591,6.47384 -17.716535,7.68959 -1.151692,0.22148 -3.96652,10.02695 -17.716536,10.02695 -0.353925,0 2.887564,-17.71654 -9.789828,-17.71654 -6.048539,0 -15.813928,-17.66312 -22.44693,-21.5732 -6.620156,-3.90251 -14.7349349,-3.73656 -14.8774219,-3.73656"
           style="fill:none;stroke:#826d35;stroke-width:0.375;stroke-linecap:butt;stroke-linejoin:miter;stroke-miterlimit:4;stroke-opacity:1;stroke-dasharray:none" />
        <path
           sodipodi:nodetypes="csssssssc"
           id="path1906"
           d="m 14.859019,243.23115 c 9.418353,-5.64884 34.652588,22.51686 45.438173,22.51686 13.817978,0 19.203367,2.60352 28.285485,-6.94433 2.976494,-3.12913 8.810138,-7.66194 11.009314,-10.7722 7.102729,-10.0453 6.707219,27.6757 6.707219,27.70961 0,5.6269 11.97278,15.22286 17.71654,16.93741 8.82025,2.63291 20.12878,-0.83017 28.42097,-1.35499 2.3327,-0.14764 4.67473,0 7.0121,0 3.28586,0 0,3.58246 0,6.86832"
           style="fill:none;stroke:#826d35;stroke-width:0.375;stroke-linecap:butt;stroke-linejoin:miter;stroke-miterlimit:4;stroke-opacity:1;stroke-dasharray:none" />
        <path
           sodipodi:nodetypes="cccccccccc"
           id="path1907"
           d="m 167.6804,298.93915 c 6.88789,0 13.77576,0 15.92116,0 9.79425,0 18.26209,-5.31126 28.99687,-8.29314 2.30649,-0.64069 0,-4.78764 0,-7.18146 0,-6.63571 17.71653,-2.44274 17.71653,-9.07845 0,-33.27417 13.19356,-18.52847 35.43307,-35.26371 9.05027,-6.81033 15.20896,7.58632 17.71654,-17.6149 0.21355,-2.1461 15.55983,8.80745 17.71653,8.80745 14.2745,0 -4.26498,-28.33992 -8.5026,-41.9709 -1.34421,-4.3239 11.34385,-13.15424 12.28052,-14.16796"
           style="fill:none;stroke:#826d35;stroke-width:0.375;stroke-linecap:butt;stroke-linejoin:miter;stroke-miterlimit:4;stroke-opacity:1;stroke-dasharray:none" />
        <path
           sodipodi:nodetypes="csc"
           id="path1908"
           d="m 216.45509,299.77411 c -1.60661,-5.16791 51.96485,-32.32893 59.9635,-34.0261 14.08811,-2.98925 34.2051,-5.78213 45.27088,-5.78213"
           style="fill:none;stroke:#826d35;stroke-width:0.375;stroke-linecap:butt;stroke-linejoin:miter;stroke-miterlimit:4;stroke-opacity:1;stroke-dasharray:none" />
      </g>
      <path
         sodipodi:nodetypes="ccccccccccc"
         id="path2670-3"
         d="M 5.3146309,8.6438471 C 19.551091,8.5683071 31.968364,7.2650955 46.204769,7.2258929 c -0.0843,3.0031601 -0.208856,6.8913601 0.158195,9.8762901 -1.658318,2.89611 -1.955223,6.247001 -3.089574,9.34816 0.946165,2.877207 1.767374,5.914826 2.565864,8.823202 0.354562,3.848309 0.176371,8.020122 0.53675,11.868076 C 30.871556,46.228224 17.546688,45.631823 2.0589991,44.37102 3.7203758,41.564899 3.9643879,39.057781 5.3128961,36.110803 4.3244177,33.883744 3.500266,31.450827 2.866846,29.097004 4.5188829,25.33536 4.6893975,21.03429 6.5835516,17.37104 6.3082459,14.148711 5.8094967,11.836431 5.3146309,8.6438471 z"
         style="fill:none;stroke:#ffffff;stroke-width:0.82360929;stroke-linecap:butt;stroke-linejoin:miter;stroke-miterlimit:4;stroke-opacity:0.68773235;display:inline" />
      <path
         sodipodi:nodetypes="ccccc"
         id="path5347"
         d="M 5.4462326,35.820243 45.451287,35.325132 43.074749,27.205294 3.366762,29.383786 5.4462326,35.820243 z"
         style="opacity:0.15034964;fill:#020300;fill-opacity:1;stroke:none" />
      <path
         sodipodi:nodetypes="ccccc"
         id="path5347-8"
         d="M 7.1296143,16.857451 45.847376,16.956475 45.816617,7.5771751 5.7433002,9.1337025 7.1296143,16.857451 z"
         style="opacity:0.15034964;fill:#020300;fill-opacity:1;stroke:none;display:inline" />
    </g>
  </g>
  <g
     inkscape:groupmode="layer"
     id="layer5"
     inkscape:label="Data"
     style="display:none"
     sodipodi:insensitive="true">
    <path
       sodipodi:type="arc"
       style="opacity:0.32926803;fill:none;fill-opacity:1;stroke:none;stroke-width:1.25;stroke-linecap:butt;stroke-linejoin:round;stroke-miterlimit:4;stroke-dashoffset:0;stroke-opacity:1"
       id="path2538"
       sodipodi:cx="224.91193"
       sodipodi:cy="118.61269"
       sodipodi:rx="100.89618"
       sodipodi:ry="100.89618"
       d="M 325.80811,118.61269 A 100.89618,100.89618 0 1 1 124.01575,118.61269 A 100.89618,100.89618 0 1 1 325.80811,118.61269 z"
       transform="translate(10.1811,0.625001)" />
    <path
       sodipodi:type="arc"
       style="opacity:0.35975599;fill:url(#pattern2692) #000000;fill-opacity:1;stroke:none;stroke-width:1.25;stroke-linecap:butt;stroke-linejoin:round;stroke-miterlimit:4;stroke-dashoffset:0;stroke-opacity:1"
       id="path2615"
       sodipodi:cx="224.91193"
       sodipodi:cy="118.61269"
       sodipodi:rx="100.89618"
       sodipodi:ry="100.89618"
       d="M 325.80811,118.61269 A 100.89618,100.89618 0 1 1 124.01575,118.61269 A 100.89618,100.89618 0 1 1 325.80811,118.61269 z"
       transform="translate(10.8061,6.60814e-7)" />
    <rect
       style="fill:none;stroke:none"
       width="32.232422"
       height="37.876175"
       x="183.76682"
       y="59.468407"
       id="rect2614" />
    <rect
       style="fill:none;stroke:none"
       width="32.232422"
       height="28.276169"
       x="183.76675"
       y="59.468407"
       id="rect2631" />
    <rect
       style="opacity:0.35975599;fill:none;fill-opacity:1;stroke:none;stroke-width:2.5;stroke-linecap:butt;stroke-linejoin:round;stroke-miterlimit:4;stroke-dashoffset:0;stroke-opacity:1"
       id="rect2684"
       width="74.52462"
       height="53.149605"
       x="379.39807"
       y="159.44879" />
  </g>
  <g
     inkscape:label="MagnifyingGlass"
     inkscape:groupmode="layer"
     id="layer1"
     sodipodi:insensitive="true"
     style="display:none">
    <g
       id="g2489"
       style="display:block">
      <g
         id="g1774"
         transform="matrix(0.707107,0.707107,-0.707107,0.707107,161.603,-155.887)">
        <path
           style="fill:url(#linearGradient1777) #000000;fill-opacity:1;stroke:#000000;stroke-width:6.25;stroke-linecap:butt;stroke-linejoin:miter;stroke-miterlimit:4;stroke-opacity:1"
           d="M 248.03125,35.4375 C 189.35409,35.4375 141.71875,83.041586 141.71875,141.71875 C 141.71875,194.3456 180.07689,237.97584 230.3125,246.4375 L 230.3125,283.46875 L 265.75,283.46875 L 265.75,246.4375 C 315.98562,237.97584 354.34377,194.3456 354.34375,141.71875 C 354.34375,83.041586 306.70841,35.4375 248.03125,35.4375 z M 248.03125,53.15625 C 296.92889,53.15625 336.625,92.821111 336.625,141.71875 C 336.62501,190.61639 296.92889,230.3125 248.03125,230.3125 C 199.13361,230.31251 159.4375,190.61639 159.4375,141.71875 C 159.43749,92.821111 199.13361,53.15625 248.03125,53.15625 z"
           id="path1736" />
        <rect
           style="fill:url(#linearGradient1778) #000000;fill-opacity:1;stroke:url(#linearGradient1779) #000000;stroke-width:7.61230993;stroke-linecap:butt;stroke-linejoin:round;stroke-miterlimit:4;stroke-opacity:1"
           id="rect1762"
           width="70.866142"
           height="157.6528"
           x="212.59842"
           y="280.64615"
           rx="20"
           ry="20" />
      </g>
      <path
         sodipodi:type="arc"
         style="fill:url(#radialGradient2415) #000000;fill-opacity:1;stroke:none;stroke-width:6.25;stroke-linecap:butt;stroke-linejoin:round;stroke-miterlimit:4;stroke-opacity:1"
         id="path2410"
         sodipodi:cx="212.59842"
         sodipodi:cy="70.866119"
         sodipodi:rx="35.433071"
         sodipodi:ry="35.433071"
         d="M 248.03149,70.866119 A 35.433071,35.433071 0 1 1 177.16535,70.866119 A 35.433071,35.433071 0 1 1 248.03149,70.866119 z"
         transform="matrix(0.933079,0,0,0.933079,15.9212,6.43622)" />
      <path
         style="fill:url(#linearGradient2422) #000000;fill-opacity:1;stroke:none;stroke-width:6.25;stroke-linecap:butt;stroke-linejoin:round;stroke-miterlimit:4;stroke-opacity:1"
         d="M 315.0625,109.375 C 299.69703,151.4495 259.43408,181.5625 212.0625,181.5625 C 203.41775,181.5625 195.03901,180.45504 186.96875,178.5625 C 200.7201,191.72641 219.31873,199.875 239.84375,199.875 C 282.10327,199.875 316.40626,165.57202 316.40625,123.3125 C 316.40625,118.55128 315.89556,113.89642 315.0625,109.375 z"
         id="path2416" />
    </g>
  </g>
</svg>
