/* XPM */
static char * pedegree_xpm[] = {
"22 22 8 1",
" 	c None",
".	c #330066",
"+	c #404040",
"@	c #3F3F3F",
"#	c #3C3C3C",
"$	c #3E3E3E",
"%	c #434343",
"&	c #3D3D3D",
"                      ",
"                      ",
"             ......   ",
"             .++++++  ",
"             .+       ",
"       .......+       ",
"       .++++@.@       ",
"       .+    .#       ",
"       .+    ......   ",
"       .+     @@@$$@  ",
"  ......+             ",
"   +++%.+             ",
"       .+    ......   ",
"       .+    .++++++  ",
"       .@    .+       ",
"       .......+       ",
"        @&$@@.+       ",
"             .+       ",
"             ......   ",
"              ++++++  ",
"                      ",
"                      "};
