/* XPM */
static char * relativity_xpm[] = {
"45 40 5 1",
" 	c None",
".	c #999999",
"+	c #FFFFCC",
"@	c #000000",
"#	c #CCCCCC",
"                                             ",
"                                 ..........  ",
"                                 .++++++++.  ",
"                                 .++++++++.  ",
"                              @@@.++++++++.  ",
"                              @##.++++++++.  ",
"                              @# .++++++++.  ",
"                 ..........   @# ..........  ",
"                 .++++++++.   @#             ",
"                 .++++++++.   @#             ",
"              @@@.++++++++.@@@@#             ",
"              @##.++++++++.###@# ..........  ",
"              @# .++++++++.   @# .++++++++.  ",
"              @# ..........   @# .++++++++.  ",
"              @#              @@@.++++++++.  ",
"              @#               ##.++++++++.  ",
"              @#                 .++++++++.  ",
" ..........   @#                 ..........  ",
" .++++++++.   @#                             ",
" .++++++++.   @#                             ",
" .++++++++.@@@@#                             ",
" .++++++++.###@#                             ",
" .++++++++.   @#                 ..........  ",
" ..........   @#                 .++++++++.  ",
"              @#                 .++++++++.  ",
"              @#              @@@.++++++++.  ",
"              @#              @##.++++++++.  ",
"              @# ..........   @# .++++++++.  ",
"              @# .++++++++.   @# ..........  ",
"              @# .++++++++.   @#             ",
"              @@@.++++++++.@@@@#             ",
"               ##.++++++++.###@#             ",
"                 .++++++++.   @# ..........  ",
"                 ..........   @# .++++++++.  ",
"                              @# .++++++++.  ",
"                              @@@.++++++++.  ",
"                               ##.++++++++.  ",
"                                 .++++++++.  ",
"                                 ..........  ",
"                                             "};
