<svg version="1.1" viewBox="0 0 16 16" xmlns="http://www.w3.org/2000/svg">
 <path d="m11 5h4v-0.999h-1.99c1.5-0.466 1.77-1.14 1.82-1.6 0.0884-0.75-0.891-1.42-1.89-1.41-0.737 5e-3 -1.31 0.225-1.92 0.749l0.498 0.93c0.894-0.548 1.83-0.977 1.86-0.283 0.0195 0.5-1.87 0.841-2.38 1.81z" style="fill:#2e3436;stroke-width:.998"/>
 <path d="m1.98 5v2h6.02c0.42 0 1.01 0.624 1.01 0.999v0.999h-5.02c-0.919 0-1.74 0.38-2.25 0.964-0.515 0.584-0.746 1.32-0.739 2.05 0.00599 0.721 0.248 1.45 0.76 2.03s1.32 0.962 2.23 0.962h7.02v-7c0-1.64-1.33-3-3-3zm2.01 6h5.02v2h-5.02c-0.4 0-0.583-0.117-0.735-0.289s-0.252-0.442-0.255-0.72c-2e-3 -0.279 0.092-0.538 0.238-0.704 0.146-0.166 0.328-0.287 0.752-0.287z" style="fill:#2e3436;stroke-width:.998"/>
</svg>
