<svg version="1.1" viewBox="0 0 16 16" xmlns="http://www.w3.org/2000/svg">
 <g transform="translate(-141 -357)">
  <path d="m152 372h4v-1h-1.99c1.49-0.465 1.77-1.14 1.82-1.59 0.0885-0.749-0.892-1.41-1.89-1.4-0.737 5e-3 -1.3 0.225-1.93 0.747l0.498 0.93c0.895-0.548 1.83-0.977 1.86-0.283 0.0195 0.499-1.86 0.906-2.37 1.86z" style="fill:#2e3436;stroke-width:.965"/>
  <path d="m143 358v2h6.01c0.424 0 1 0.619 1 1v0.998h-5.01c-0.92 0-1.74 0.38-2.25 0.965s-0.757 1.32-0.75 2.04c6e-3 0.721 0.259 1.45 0.772 2.03s1.32 0.963 2.23 0.963h7.01v-7c0-1.64-1.33-3-3.01-3zm2 6h5.01v2h-5.01c-0.399 0-0.581-0.118-0.732-0.289-0.152-0.171-0.253-0.44-0.256-0.719-2e-3 -0.279 0.0929-0.54 0.238-0.705 0.145-0.165 0.327-0.285 0.75-0.285z" style="fill:#2e3436"/>
 </g>
</svg>
