<?xml version="1.0" encoding="UTF-8"?>
<!DOCTYPE svg PUBLIC "-//W3C//DTD SVG 1.1//EN" "http://www.w3.org/Graphics/SVG/1.1/DTD/svg11.dtd">
<!-- Creator: CorelDRAW -->
<svg xmlns="http://www.w3.org/2000/svg" xml:space="preserve" width="48.033mm" height="48.033mm" style="shape-rendering:geometricPrecision; text-rendering:geometricPrecision; image-rendering:optimizeQuality; fill-rule:evenodd; clip-rule:evenodd"
viewBox="0 0 48.033 48.033"
 xmlns:xlink="http://www.w3.org/1999/xlink">
 <defs>
  <style type="text/css">
   <![CDATA[
    .str0 {stroke:#3C6B41;stroke-width:2.26929}
    .fil0 {fill:url(#id0);fill-rule:nonzero}
   ]]>
  </style>
  <linearGradient id="id0" gradientUnits="userSpaceOnUse" x1="47.2838" y1="34.1401" x2="0.752554" y2="14.5731">
   <stop offset="0" style="stop-color:#337B30"/>
   <stop offset="0.101961" style="stop-color:#468843"/>
   <stop offset="1" style="stop-color:honeydew"/>
  </linearGradient>
 </defs>
 <g id="Ebene_x0020_1">
  <metadata id="CorelCorpID_0Corel-Layer"/>
  <path class="fil0 str0" d="M1.17237 1.84096c2.91519,1.49944 5.83038,3.00369 8.74529,4.49859 2.91519,1.49518 5.83464,2.9949 8.75437,4.4898 -1.69034,1.03139 -3.38096,2.0625 -5.06705,3.08936 0.963882,1.55333 1.92805,3.10695 2.89221,4.65602 1.2657,1.67502 2.5314,3.35033 3.80163,5.02081 1.00076,0.855807 2.00577,1.70679 3.01107,2.55778 0.232886,0.202818 0.470595,0.401098 0.708303,0.599093 0.232886,-0.197996 0.466056,-0.396275 0.703481,-0.599093 1.00076,-0.850985 2.00606,-1.70197 3.01107,-2.55778 1.2657,-1.67048 2.5314,-3.34579 3.80163,-5.02081 0.964166,-1.54908 1.92805,-3.10269 2.89221,-4.65602 -1.69062,-1.02686 -3.38096,-2.05797 -5.06705,-3.08936 2.91491,-1.4949 5.83464,-2.99462 8.74983,-4.4898 2.91462,-1.4949 5.83464,-2.99915 8.75465,-4.49859 -0.0822619,3.22892 -0.164524,6.4621 -0.242247,9.68648 -0.0777233,3.2241 -0.159985,6.45727 -0.237708,9.68166 -1.69034,-1.02657 -3.38125,-2.05797 -5.06705,-3.08908 -0.968705,1.56269 -1.93741,3.1251 -2.90611,4.68297 -1.50341,1.9862 -3.00653,3.97183 -4.50511,5.95349 -0.0958776,0.125946 -0.192039,0.251892 -0.283378,0.373582 -0.109777,0.0899208 -0.214732,0.180125 -0.31997,0.27033 -0.680504,0.580655 -1.36129,1.15734 -2.04208,1.73346 -0.141831,1.99953 -0.283662,3.99878 -0.420387,5.99831 -0.136725,1.99925 -0.274301,3.99878 -0.411593,5.99831 -0.0865168,1.24698 -0.173317,2.49452 -0.260401,3.74178 -1.26088,0 -2.5175,0 -3.77412,0 -1.58539,0 -3.17077,0 -4.75616,0 -1.26116,0 -2.51778,0 -3.7744,0 -0.0868005,-1.24726 -0.173601,-2.4948 -0.260118,-3.74178 -0.141831,-1.99953 -0.283662,-3.99906 -0.420387,-5.99831 -0.137009,-1.99953 -0.274301,-3.99878 -0.411309,-5.99831 -0.681072,-0.576117 -1.36186,-1.1528 -2.04265,-1.73346 -0.109777,-0.0902044 -0.214732,-0.180409 -0.31997,-0.27033 -0.095594,-0.121691 -0.191755,-0.247637 -0.282811,-0.373582 -1.43051,-1.88238 -2.85591,-3.7693 -4.28159,-5.65621 -0.0683625,-0.0899208 -0.137009,-0.180125 -0.205655,-0.27033 -0.00907717,-0.00879351 -0.0136158,-0.0178707 -0.0181543,-0.0269479 -0.968705,-1.55787 -1.93741,-3.12028 -2.90611,-4.68297 -1.69062,1.03111 -3.38125,2.0625 -5.06705,3.08908 -0.0822619,-3.22438 -0.164524,-6.45756 -0.242247,-9.68166 -0.0777233,-3.22438 -0.155447,-6.45756 -0.232886,-9.68648z"/>
 </g>
</svg>
