<?xml version="1.0" encoding="UTF-8" standalone="no"?>
<svg
   xmlns:dc="http://purl.org/dc/elements/1.1/"
   xmlns:cc="http://creativecommons.org/ns#"
   xmlns:rdf="http://www.w3.org/1999/02/22-rdf-syntax-ns#"
   xmlns:svg="http://www.w3.org/2000/svg"
   xmlns="http://www.w3.org/2000/svg"
   xmlns:sodipodi="http://sodipodi.sourceforge.net/DTD/sodipodi-0.dtd"
   xmlns:inkscape="http://www.inkscape.org/namespaces/inkscape"
   sodipodi:docname="gramps-preferences.svg"
   inkscape:version="1.0 (4035a4fb49, 2020-05-01)"
   id="svg56"
   version="1.1"
   viewBox="0 0 135.46666 135.46667"
   height="135.46667mm"
   width="135.46666mm">
  <defs
     id="defs50" />
  <sodipodi:namedview
     inkscape:window-maximized="1"
     inkscape:window-y="-8"
     inkscape:window-x="1672"
     inkscape:window-height="997"
     inkscape:window-width="1680"
     showgrid="false"
     inkscape:document-rotation="0"
     inkscape:current-layer="layer1"
     inkscape:document-units="mm"
     inkscape:cy="298.83564"
     inkscape:cx="144.57142"
     inkscape:zoom="0.35"
     inkscape:pageshadow="2"
     inkscape:pageopacity="0.0"
     borderopacity="1.0"
     bordercolor="#666666"
     pagecolor="#ffffff"
     id="base" />
  <metadata
     id="metadata53">
    <rdf:RDF>
      <cc:Work
         rdf:about="">
        <dc:format>image/svg+xml</dc:format>
        <dc:type
           rdf:resource="http://purl.org/dc/dcmitype/StillImage" />
        <dc:title></dc:title>
      </cc:Work>
    </rdf:RDF>
  </metadata>
  <g
     style="display:inline"
     transform="translate(-27.516668,-69.099737)"
     id="layer1"
     inkscape:groupmode="layer"
     inkscape:label="Layer 1">
    <g
       transform="matrix(0.26458333,0,0,0.26460556,27.516668,69.093916)"
       id="g119">
      <g
         id="g62">
	<g
   id="g60">
		<path
   d="M 511.956,308.448 512,206.866 446.03,199.627 c -3.584,-12.101 -8.323,-23.822 -14.165,-35.037 L 474.063,112.059 402.251,40.214 350.48,81.766 C 339.365,75.725 327.729,70.779 315.697,66.983 L 308.379,0.022 H 206.797 l -7.21,65.973 c -11.988,3.556 -23.608,8.248 -34.726,14.021 l -52.475,-42.265 -71.938,71.72 41.484,51.825 c -6.058,11.109 -11.02,22.741 -14.831,34.763 L 0.134,203.29 0,304.872 l 65.963,7.295 c 3.573,12.101 8.301,23.826 14.135,35.049 l -42.242,52.494 71.751,71.907 51.807,-41.507 c 11.112,6.052 22.744,11.008 34.769,14.815 l 7.261,66.966 101.582,0.088 7.266,-65.967 c 12.1,-3.578 23.826,-8.313 35.043,-14.149 l 52.513,42.22 71.876,-71.783 -41.529,-51.788 c 6.046,-11.112 10.997,-22.747 14.8,-34.777 z m -255.935,39.257 c -50.659,0 -91.727,-41.068 -91.727,-91.727 0,-50.659 41.068,-91.727 91.727,-91.727 50.659,0 91.727,41.068 91.727,91.727 0,50.659 -41.067,91.727 -91.727,91.727 z"
   id="path58" />

	</g>

</g>
      <g
         id="g64">
</g>
      <g
         id="g66">
</g>
      <g
         id="g68">
</g>
      <g
         id="g70">
</g>
      <g
         id="g72">
</g>
      <g
         id="g74">
</g>
      <g
         id="g76">
</g>
      <g
         id="g78">
</g>
      <g
         id="g80">
</g>
      <g
         id="g82">
</g>
      <g
         id="g84">
</g>
      <g
         id="g86">
</g>
      <g
         id="g88">
</g>
      <g
         id="g90">
</g>
      <g
         id="g92">
</g>
    </g>
    <path
       transform="matrix(0.26458333,0,0,0.26458333,27.516668,69.099737)"
       id="path121"
       d="m 203.18111,495.26421 c -0.99082,-8.25 -2.69048,-23.10609 -3.77702,-33.01351 l -1.97552,-18.01355 -17.14286,-6.97323 c -9.42857,-3.83528 -18.1705,-6.9792 -19.42652,-6.98648 -1.25601,-0.009 -12.63453,8.34391 -25.28559,18.5582 -12.65106,10.21428 -23.8578,18.57143 -24.90386,18.57143 -1.04606,0 -17.211756,-15.34983 -35.923774,-34.11072 -25.43744,-25.50388 -33.303868,-35.056 -31.176345,-37.85714 1.565023,-2.06054 10.69492,-13.49597 20.288657,-25.41206 L 81.301441,348.3615 73.932052,329.6073 66.562664,310.8531 34.138472,307.36044 1.7142807,303.86775 v -49.65891 c 0,-37.67913 0.8615765,-49.72371 3.5714285,-49.9275 1.9642858,-0.14771 16.8232658,-1.75486 33.0199548,-3.57142 l 29.448528,-3.30285 6.966814,-17.14286 c 3.831749,-9.42857 6.972769,-18.1705 6.980043,-19.42652 0.0073,-1.25601 -8.343911,-12.63453 -18.558197,-25.28559 -10.214286,-12.65106 -18.571428,-23.8578 -18.571428,-24.90386 0,-1.04606 15.289008,-17.151104 33.975577,-35.788987 24.066929,-24.004223 35.107599,-33.200772 37.857139,-31.53386 2.13486,1.29426 13.60603,10.373357 25.49148,20.175768 l 21.60992,17.822569 18.75183,-7.368454 18.75183,-7.368458 1.85593,-18.875588 c 1.02077,-10.381574 2.63076,-24.982734 3.57777,-32.44702 l 1.72184,-13.5714287 h 49.42632 49.42633 l 1.80149,14.9999997 c 0.99083,8.25 2.69049,23.106086 3.77703,33.013523 l 1.97551,18.013523 17.14286,6.973249 c 9.42857,3.835285 18.17051,6.9792 19.42651,6.986474 1.25603,0.0071 12.63455,-8.343912 25.2856,-18.558197 12.65106,-10.214286 23.8578,-18.571429 24.90386,-18.571429 1.04606,0 17.21174,15.34982 35.92377,34.110714 25.43743,25.503882 33.30386,35.056012 31.17635,37.857142 -1.56503,2.06054 -10.69492,13.49597 -20.28866,25.41207 l -17.44317,21.66563 7.35885,18.7274 7.35886,18.72739 17.43474,1.80323 c 9.58909,0.99178 24.18472,2.5702 32.43472,3.50761 l 15,1.70438 v 49.4652 49.46521 l -15,1.80148 c -8.25,0.99083 -23.10609,2.69049 -33.01352,3.77703 l -18.01354,1.97551 -6.97323,17.14286 c -3.83528,9.42857 -6.9792,18.17052 -6.98648,19.42652 -0.009,1.25602 8.34391,12.63454 18.5582,25.2856 10.21428,12.65105 18.57143,23.8578 18.57143,24.90385 0,1.04606 -15.34983,17.21175 -34.11072,35.92377 -25.50388,25.43743 -35.056,33.30386 -37.85714,31.17635 -2.06054,-1.56503 -13.49597,-10.69492 -25.41206,-20.28866 l -21.66566,-17.44317 -18.7542,7.3694 -18.7542,7.3694 -3.49265,32.42417 -3.49269,32.4242 H 254.43593 204.9826 Z m 81.39031,-151.24374 c 16.25606,-4.65626 39.08732,-21.81372 48.11106,-36.155 11.20029,-17.80046 15.31751,-31.74726 15.31751,-51.88697 0,-52.37302 -39.74434,-92.07492 -92,-91.90178 -52.62314,0.17436 -91.81337,39.40233 -91.81337,91.90178 0,63.80302 57.69567,105.99805 120.3848,88.04197 z"
       style="opacity:0.75;fill:#008080;stroke-width:2.85714" />
    <path
       transform="matrix(0.26458333,0,0,0.26458333,27.516668,69.099737)"
       id="path123"
       d="m 202.08016,478.18678 c -2.22857,-20.88346 -4.84818,-33.28108 -7.45029,-35.2594 -2.20725,-1.67811 -11.06425,-5.44786 -19.6822,-8.37717 l -15.66902,-5.32606 -22.8323,17.66289 c -12.55777,9.71457 -24.00684,17.66288 -25.44239,17.66288 -3.38688,0 -66.432536,-63.11314 -66.432536,-66.50365 0,-1.41897 7.450765,-11.78617 16.55726,-23.03817 9.106494,-11.252 17.481008,-21.97066 18.610034,-23.81923 1.939954,-3.17635 -7.758477,-33.99823 -12.254306,-38.94455 -1.152588,-1.26808 -16.100954,-3.84328 -33.218588,-5.72271 L 3.1428521,303.1045 2.2384915,274.5415 C 1.741093,258.83185 2.1566921,236.82276 3.1620452,225.63241 l 1.8279143,-20.34609 30.5050185,-3.36486 c 19.294488,-2.12828 31.626294,-4.82776 33.556131,-7.34557 1.678115,-2.18939 5.447846,-11.03177 8.377177,-19.64972 l 5.326063,-15.66901 -17.662891,-22.83231 c -9.714592,-12.55777 -17.662892,-23.98201 -17.662892,-25.3872 0,-3.20525 53.109034,-57.013574 62.063694,-62.880897 6.3278,-4.146132 7.51381,-3.598723 27.27588,12.589354 11.36323,9.30818 22.1729,17.846449 24.02149,18.973926 3.16149,1.92824 33.98356,-7.751997 38.90681,-12.219395 1.24733,-1.13184 3.81876,-16.080202 5.71428,-33.218585 l 3.44642,-31.1607002 48.8128,-0.779724 48.8128,-0.7797239 3.43708,32.2082961 c 2.22857,20.883472 4.84817,33.281103 7.45029,35.259409 2.20726,1.678114 11.06426,5.447846 19.6822,8.377177 l 15.66903,5.326063 22.83231,-17.662892 c 12.55774,-9.714591 24.08117,-17.662891 25.60757,-17.662891 3.78652,0 66.26735,62.727513 66.26735,66.528973 0,1.6703 -7.45203,12.13458 -16.56009,23.25396 -9.10803,11.11939 -17.48254,21.72954 -18.61003,23.57813 -1.93768,3.17697 7.76357,34.00071 12.25712,38.94454 1.1526,1.26808 16.10097,3.84483 33.2186,5.72611 l 31.12297,3.42052 0.77971,48.80097 0.77974,48.80097 -32.20831,3.43708 c -20.88346,2.22858 -33.28109,4.84818 -35.2594,7.45029 -1.67811,2.20726 -5.42383,10.99363 -8.32383,19.52529 l -5.27274,15.51208 17.60957,22.76334 c 9.68526,12.51986 17.60954,24.1042 17.60954,25.743 0,3.85515 -62.77243,66.51475 -66.63454,66.51475 -1.61223,0 -12.029,-7.45203 -23.1484,-16.56009 -11.11937,-9.10803 -21.72954,-17.48254 -23.57811,-18.61003 -3.17698,-1.93768 -34.00072,7.76357 -38.94455,12.25712 -1.26808,1.1526 -3.84483,16.10097 -5.72611,33.2186 l -3.42052,31.12297 -48.80097,0.77971 -48.80098,0.77975 z m 92.49126,-138.02197 c 19.37652,-9.18189 37.84255,-27.618 46.41255,-46.33734 6.31171,-13.78658 6.97351,-18.43156 5.93862,-41.68229 -0.98748,-22.1856 -2.42705,-28.47876 -9.46194,-41.3634 -16.30868,-29.86994 -39.4706,-43.81031 -75.74637,-45.58913 -31.63344,-1.55118 -52.26756,5.63844 -71.56463,24.93551 -19.24999,19.24999 -26.46812,39.91276 -24.99967,71.56462 0.93193,20.08748 2.55805,26.91274 9.40665,39.48243 23.19606,42.5732 76.14888,59.77617 120.01479,38.9896 z"
       style="opacity:0.5;fill:#008080;stroke-width:2.85714" />
    <path
       transform="matrix(0.26458333,0,0,0.26458333,27.516668,69.099737)"
       id="path125"
       d="M 202.20133,478.18632 C 198.24111,442.0539 197.9081,441.53038 174.11385,434.0299 l -14.95403,-4.71383 -22.77289,17.61694 c -12.52508,9.68929 -23.91431,17.61691 -25.30939,17.61691 -3.0142,0 -66.506116,-63.8954 -66.506116,-66.92874 0,-1.15054 7.482562,-11.31226 16.62792,-22.58157 9.145354,-11.26934 17.519871,-22.00217 18.610034,-23.85074 1.882788,-3.19263 -7.886309,-34.06112 -12.324966,-38.94455 -1.152588,-1.26808 -16.100954,-3.84288 -33.218588,-5.7218 L 3.1428521,303.10635 2.2287844,277.39956 c -0.5027372,-14.13873 -0.084233,-36.09374 0.9300103,-48.7889 l 1.844078,-23.08213 30.4985623,-3.47965 c 34.242117,-3.90676 35.030186,-4.42722 42.477634,-28.05324 L 82.723395,158.9449 65.075981,136.17817 c -9.706077,-12.5217 -17.647415,-23.8674 -17.647415,-25.21268 0,-3.12315 64.041264,-66.415566 67.201374,-66.415566 1.30047,0 11.46218,7.452034 22.58156,16.560074 11.11939,9.10804 21.72954,17.482558 23.57813,18.610035 3.17697,1.93768 34.00071,-7.76356 38.94454,-12.25712 1.26808,-1.152589 3.84483,-16.100955 5.72611,-33.218589 l 3.42051,-31.1229712 48.6939,-0.7792643 48.6939,-0.7792643 3.53006,32.2078368 c 3.96023,36.132426 4.29323,36.655943 28.08749,44.15642 l 14.95403,4.713843 22.77288,-17.616928 c 12.52509,-9.689312 23.91432,-17.616929 25.3094,-17.616929 3.0142,0 66.50612,63.895393 66.50612,66.928753 0,1.15054 -7.48258,11.31224 -16.62792,22.58156 -9.14537,11.26933 -17.51988,22.00216 -18.61003,23.85075 -1.8828,3.19263 7.88629,34.06112 12.32495,38.94454 1.1526,1.26808 16.10097,3.84483 33.2186,5.72611 l 31.12297,3.42052 0.77925,48.69389 0.77926,48.69391 -32.20783,3.53005 c -36.13243,3.96023 -36.65594,4.29323 -44.15643,28.08749 l -4.71382,14.95403 17.61694,22.77288 c 9.68928,12.52509 17.61691,23.91432 17.61691,25.3094 0,3.0142 -63.8954,66.50612 -66.92874,66.50612 -1.15054,0 -11.31226,-7.48257 -22.58157,-16.62792 -11.26934,-9.14537 -22.00217,-17.51988 -23.85074,-18.61003 -3.19263,-1.8828 -34.06112,7.88629 -38.94455,12.32495 -1.26808,1.1526 -3.84483,16.10097 -5.72611,33.2186 l -3.42052,31.12297 -48.69389,0.77926 -48.6939,0.77925 z m 71.51518,-131.06288 c 19.85243,-4.1182 35.23571,-13.21509 51.18914,-30.27057 18.56772,-19.8504 23.53283,-34.72417 21.95992,-65.78436 -1.92366,-37.98549 -16.71552,-62.00601 -47.48958,-77.11834 -14.47945,-7.11048 -19.31976,-7.97167 -44.80457,-7.97167 -26.3342,0 -29.77031,0.66404 -43.88229,8.48041 -19.21418,10.6424 -32.91596,26.48517 -40.65464,47.00717 -8.90813,23.62324 -6.91735,58.7135 4.52214,79.70913 13.02237,23.90077 36.0206,40.88951 62.4255,46.11351 16.94598,3.35266 19.8383,3.33963 36.73438,-0.16542 z"
       style="opacity:0.25;fill:#008080;stroke-width:2.85714" />
    <path
       transform="matrix(0.26458333,0,0,0.26458333,27.516668,69.099737)"
       id="path127"
       d="M 202.20133,478.18632 C 198.24419,442.0821 197.89127,441.5251 174.2514,434.07327 l -14.81647,-4.67049 -23.32188,17.57357 c -12.82704,9.66546 -24.27816,17.57357 -25.44695,17.57357 -2.47883,0 -66.094676,-64.02231 -66.094676,-66.51697 0,-0.92405 7.455611,-11.08577 16.568022,-22.58157 9.112415,-11.4958 17.486932,-22.41394 18.610038,-24.26251 1.93126,-3.17877 -7.777932,-34.00777 -12.265072,-38.94455 -1.152588,-1.26808 -16.100954,-3.84288 -33.218588,-5.7218 L 3.1428521,303.10635 2.2287844,277.39956 c -0.5027372,-14.13873 -0.084233,-36.09374 0.9300103,-48.7889 l 1.844078,-23.08213 30.4985623,-3.47965 c 34.214731,-3.90364 35.035309,-4.44347 42.434597,-27.91672 l 4.701292,-14.91421 -17.604378,-23.31523 c -9.682408,-12.82338 -17.60438,-24.23052 -17.60438,-25.3492 0,-2.84513 64.304624,-66.003596 67.201374,-66.003596 1.30047,0 11.46218,7.452034 22.58156,16.560074 11.11939,9.10804 21.72954,17.482558 23.57813,18.610035 3.17697,1.93768 34.00071,-7.76356 38.94454,-12.25712 1.26808,-1.152589 3.84483,-16.100955 5.72611,-33.218589 l 3.42051,-31.1229712 48.6939,-0.7792643 48.6939,-0.7792643 3.53006,32.2078368 c 3.95714,36.10424 4.31006,36.661249 27.94994,44.11306 l 14.81646,4.67048 23.32189,-17.573565 c 12.82703,-9.665463 24.27817,-17.573569 25.44694,-17.573569 2.47883,0 66.09469,64.022303 66.09469,66.516973 0,0.92406 -7.4556,11.08576 -16.56803,22.58156 -9.1124,11.49581 -17.48692,22.41394 -18.61003,24.26253 -1.93126,3.17877 7.77794,34.00778 12.26506,38.94454 1.1526,1.26808 16.10097,3.84483 33.2186,5.72611 l 31.12297,3.42052 0.77925,48.69389 0.77926,48.69391 -32.20783,3.53005 c -36.13243,3.96023 -36.65594,4.29323 -44.15643,28.08749 l -4.71382,14.95403 17.61694,22.77288 c 9.68928,12.52509 17.61691,23.91432 17.61691,25.3094 0,2.755 -63.76151,66.50612 -66.51697,66.50612 -0.92406,0 -11.08577,-7.4556 -22.58157,-16.56803 -11.4958,-9.1124 -22.41394,-17.48692 -24.26251,-18.61003 -3.17878,-1.93126 -34.00778,7.77794 -38.94455,12.26506 -1.26808,1.1526 -3.84483,16.10097 -5.72611,33.2186 l -3.42052,31.12297 -48.69389,0.77926 -48.6939,0.77925 z m 71.51518,-131.12671 c 20.0416,-4.24194 28.92503,-9.06077 46.00994,-24.95817 20.07686,-18.68143 27.63906,-36.13526 27.6742,-63.87291 0.0502,-39.65969 -16.53246,-68.81403 -47.9028,-84.21875 -14.61708,-7.17786 -19.39105,-8.03128 -44.92643,-8.03128 -26.3342,0 -29.77031,0.66404 -43.88229,8.48041 -19.21418,10.6424 -32.91596,26.48517 -40.65464,47.00717 -8.90813,23.62324 -6.91735,58.7135 4.52214,79.70913 13.02237,23.90077 36.0206,40.88951 62.4255,46.11351 16.98365,3.36012 19.86137,3.34215 36.73438,-0.22914 z"
       style="opacity:0.25;fill:#7f8080;stroke-width:2.85714;fill-opacity:1" />
    <path
       transform="matrix(0.26458333,0,0,0.26458333,27.516668,69.099737)"
       id="path952"
       d="m 205.00984,498.36107 c -0.94098,-6.81043 -2.56316,-20.49112 -3.60486,-30.40155 -2.18199,-20.75905 -6.26793,-26.5492 -23.31995,-33.04651 -16.85803,-6.4234 -19.84576,-5.98686 -33.21934,4.85349 -6.44756,5.22628 -16.84442,12.94171 -23.10414,17.14542 l -11.38129,7.64312 -32.190134,-32.0988 C 60.485555,414.8019 45.999995,399.26615 45.999995,397.93235 c 0,-1.33377 7.714286,-12.39708 17.142857,-24.58511 9.428572,-12.18806 17.142857,-24.18192 17.142857,-26.65303 0,-2.47111 -2.728743,-11.6236 -6.063874,-20.33883 -6.769994,-17.69108 -3.803654,-16.42651 -49.650411,-21.16634 l -20.0000005,-2.06769 -0.8480588,-40 c -0.4664323,-22 -0.1307617,-43.94393 0.7459348,-48.7643 l 1.5939935,-8.76431 28.816485,-3.38094 c 15.849068,-1.85952 30.11156,-4.18135 31.694428,-5.15962 4.645452,-2.87104 13.580606,-24.67537 13.648755,-33.30686 0.04154,-5.26138 -5.248343,-15.00388 -15.651537,-28.82577 -8.642858,-11.48308 -15.714286,-22.1207 -15.714286,-23.63917 0,-1.51846 14.765154,-17.328499 32.811451,-35.133413 C 105.57798,52.55739 115.4614,44.526153 118.09716,46.54523 c 1.98942,1.523957 12.74476,10.04384 23.90077,18.933077 l 20.28364,16.162246 14.43238,-4.285955 c 23.26702,-6.909562 25.47929,-10.14886 29.13492,-42.660642 1.75802,-15.635067 3.90155,-29.135067 4.76342,-29.9999992 0.86186,-0.8649323 22.51451,-2.0019038 48.117,-2.5266032 l 46.54999,-0.953999 1.71086,12.3825704 c 0.941,6.810414 2.56317,20.491113 3.60485,30.401553 2.182,20.759049 6.26795,26.549195 23.31998,33.046498 16.85802,6.423394 19.84574,5.986874 33.21934,-4.853495 6.44754,-5.226265 16.8444,-12.941703 23.10411,-17.145417 l 11.38132,-7.64312 32.19011,32.098814 c 17.70457,17.654346 32.18112,33.405502 32.17006,35.002562 -0.011,1.59706 -7.71629,12.5466 -17.12277,24.33232 -9.40649,11.78571 -17.11175,23.56416 -17.12277,26.17433 -0.0334,7.89664 11.9766,36.67163 15.37642,36.84065 1.7462,0.0868 16.03206,1.71535 31.74635,3.61898 l 28.57143,3.46113 0.77997,48.82178 0.77997,48.82179 -20.77997,1.92837 c -45.46412,4.21905 -47.22092,5.22028 -55.10049,31.4022 l -3.84451,12.77428 16.86517,22.36395 c 9.27583,12.3002 16.89868,23.67065 16.93966,25.26771 0.0408,1.59706 -14.58149,17.51817 -32.49438,35.3802 l -32.56882,32.47646 -24.33209,-18.99986 -24.33209,-18.99989 -13.81334,4.59492 c -25.10128,8.34977 -25.42834,8.81571 -29.14783,41.52557 -1.83308,16.12051 -4.0588,30.03843 -4.94603,30.92871 -0.8872,0.89029 -22.5606,2.048 -48.1631,2.57272 l -46.54998,0.954 z m 86.25101,-156.80529 c 17.8086,-7.8776 36.20063,-23.6068 44.83914,-38.34731 14.33103,-24.45406 14.93518,-66.27313 1.34232,-92.91733 -6.5812,-12.90023 -28.45483,-33.27119 -42.32914,-39.42123 -14.64604,-6.49213 -63.58031,-6.49213 -78.22636,0 -13.8743,6.15004 -35.74792,26.521 -42.32912,39.42123 -12.94676,25.37774 -12.94676,65.99698 0,91.37473 5.34964,10.48614 25.80402,31.09405 36.59406,36.86871 22.9196,12.2662 56.35835,13.52729 80.1091,3.0212 z"
       style="opacity:0.25;fill:#7f2e80;fill-opacity:1;stroke-width:2.85714" />
    <path
       transform="matrix(0.26458333,0,0,0.26458333,27.516668,69.099737)"
       id="path954"
       d="m 202.98237,480.03361 c -2.29156,-19.33594 -5.22498,-32.07597 -8.13969,-35.3512 -4.69965,-5.28091 -25.72068,-14.4182 -33.17021,-14.4182 -2.31653,0 -14.72401,7.79429 -27.57218,17.3206 l -23.3603,17.32063 -29.704555,-29.46349 c -16.337506,-16.20488 -30.895671,-31.61337 -32.35148,-34.24103 -2.035497,-3.67397 1.308703,-10.11251 14.477417,-27.87314 9.418386,-12.70257 17.124337,-24.99094 17.124337,-27.30748 0,-6.04695 -8.750083,-27.90649 -13.032257,-32.55735 -2.182951,-2.37088 -15.408457,-5.22 -33.156746,-7.14285 L 4.5714235,303.12135 3.7038432,265.9785 C 3.2266741,245.54992 3.5922224,223.60248 4.5161727,217.2064 l 1.6799094,-11.62924 28.7500899,-3.37315 c 15.812552,-1.85524 30.045166,-4.17356 31.628034,-5.15183 4.578878,-2.8299 13.579978,-24.6211 13.648755,-33.04293 0.03939,-4.82309 -5.787406,-15.83743 -15.651537,-29.58598 -8.642858,-12.04635 -15.714286,-22.84944 -15.714286,-24.00687 0,-3.65106 62.278952,-63.009333 66.109652,-63.009333 2.0099,0 13.36918,7.530349 25.24284,16.734106 l 21.58848,16.734105 13.24773,-3.363734 c 25.04235,-6.358506 26.76407,-8.729677 30.74811,-42.346623 l 3.53558,-29.832796 19.04952,-1.7993602 c 10.47723,-0.9896483 32.10094,-1.8085006 48.05269,-1.819672 l 29.00317,-0.020312 3.58271,30.2305922 c 2.29157,19.335965 5.22497,32.075977 8.13969,35.351194 4.69966,5.280926 25.72068,14.418214 33.1702,14.418214 2.31654,0 14.72403,-7.794274 27.5722,-17.320608 l 23.36028,-17.320606 29.70458,29.463463 c 16.33748,16.204906 30.89565,31.61337 32.35145,34.24103 2.03552,3.67397 -1.30868,10.11252 -14.4774,27.87316 -9.4184,12.70257 -17.12434,24.90255 -17.12434,27.11105 0,7.38397 12.18,35.95044 15.39651,36.11035 1.7462,0.0868 16.03206,1.71535 31.74635,3.61898 l 28.57143,3.46113 0.78002,48.83812 0.78006,48.83813 -22.20863,1.97186 c -35.43911,3.14654 -43.56031,6.49954 -49.77588,20.55083 -8.68706,19.63854 -7.83723,23.64494 10.05888,47.42208 13.3654,17.75757 15.94229,22.88469 13.617,27.09315 -1.57743,2.85491 -16.32568,18.53957 -32.77385,34.85477 l -29.90583,29.66405 -23.85732,-18.58251 -23.85731,-18.58249 -13.28966,3.40523 c -25.1092,6.43377 -26.80577,8.7694 -30.79003,42.38812 l -3.53557,29.8328 -19.04951,1.79937 c -10.47723,0.98963 -32.10094,1.80848 -48.05269,1.81966 l -29.00317,0.0203 z m 74.4462,-133.80103 c 19.51768,-4.2384 52.25125,-29.64997 61.68,-47.88314 11.48237,-22.20449 10.57248,-63.30904 -1.95698,-88.40684 -4.82568,-9.6664 -31.54628,-36.38949 -37.17488,-37.17839 -3.96917,-0.55631 -6.38709,-1.36086 -12.54814,-4.17533 -3.14286,-1.43571 -17.28572,-2.61038 -31.42858,-2.61038 -14.14285,0 -28.28571,1.17467 -31.42857,2.61038 -6.16105,2.81447 -8.57896,3.61902 -12.54813,4.17533 -5.10728,0.71583 -32.10043,27.05527 -36.61544,35.72869 -8.93114,17.15691 -12.63744,43.4218 -9.066,64.24658 4.16709,24.29793 10.37697,36.36627 26.23344,50.98224 15.36454,14.16255 25.45,19.66243 40.41839,22.04129 6.18449,0.98286 11.96236,2.52069 12.83971,3.41737 1.56564,1.60017 17.49654,0.11372 31.59518,-2.9478 z"
       style="opacity:0.25;fill:#7f1780;fill-opacity:1;stroke-width:2.85714" />
    <path
       transform="matrix(0.26458333,0,0,0.26458333,27.516668,69.099737)"
       id="path958"
       d="m 203.60432,483.31647 c -4.34675,-35.37023 -6.69759,-40.91237 -19.72901,-46.51112 -18.83984,-8.09428 -26.47674,-6.37451 -51.09869,11.507 l -22.49091,16.33389 -30.714286,-31.01346 c -16.892858,-17.0574 -30.714286,-32.95866 -30.714286,-35.33617 0,-2.37751 7.071428,-14.17826 15.714286,-26.22389 8.642857,-12.0456 15.714285,-23.57982 15.714285,-25.63157 0,-9.2644 -9.728688,-30.89328 -15.286585,-33.98525 -3.378092,-1.87932 -17.655478,-4.74852 -31.72752,-6.376 C 9.538295,303.33504 7.5422361,302.60375 5.6992601,295.97824 3.1392064,286.77481 2.6154687,234.90944 4.9132978,218.14495 l 1.7704457,-12.91681 22.2336975,-1.93947 c 34.23056,-2.98597 37.64054,-4.40859 44.939697,-18.74853 9.634483,-18.92793 8.418783,-25.63936 -9.131223,-50.41011 C 52.697452,117.1526 49.768204,111.04335 51.819024,107.21135 55.169644,100.95066 112.13306,47.407067 115.443,47.407067 c 1.35122,0 12.42166,7.708771 24.60099,17.130603 l 22.14423,17.130606 14.09839,-4.186772 C 200.89926,70.172333 203.15788,66.319158 207.4908,24.247596 L 209.4346,5.373839 237.00301,3.5480919 C 252.16564,2.5439308 273.68675,1.715693 284.82771,1.707563 l 20.25628,-0.014782 3.31169,26.947746 c 4.23431,34.455497 6.38026,39.713837 18.56749,45.497051 21.15097,10.036795 24.31125,9.451195 50.53451,-9.364062 l 24.2166,-17.375483 30.71429,30.969808 c 16.89285,17.033395 30.71428,32.915039 30.71428,35.292539 0,2.37751 -7.07143,14.17825 -15.71428,26.22388 -8.64286,12.04562 -15.71429,23.57983 -15.71429,25.63157 0,7.11581 9.00914,30.12625 13.13617,33.55138 2.28152,1.89348 16.65206,4.88769 31.93457,6.65378 l 27.7864,3.21109 1.93109,12.80892 c 1.06208,7.04491 2.02637,29.01312 2.14286,48.81825 l 0.21177,36.00933 -21.7924,1.84212 c -34.53006,2.91888 -43.7892,6.67697 -49.9686,20.28131 -8.25715,18.17863 -6.91486,25.26631 8.90385,47.01506 7.85715,10.8026 14.28572,21.82043 14.28572,24.48408 0,2.66366 -13.84383,18.98232 -30.76409,36.26375 l -30.76408,31.42074 -24.54537,-18.79092 -24.54535,-18.79088 -13.40023,4.03288 c -25.24045,7.59626 -26.3846,9.20083 -30.33622,42.54426 l -3.52249,29.72252 -27.48966,1.82057 c -15.11931,1.00131 -36.60498,1.82723 -47.74594,1.83537 l -20.25628,0.0148 z m 89.43527,-143.35383 c 16.23323,-8.35334 39.80115,-29.84032 46.31275,-42.22354 10.70803,-20.36366 9.67605,-64.29324 -2.05792,-87.60331 -6.40285,-12.71958 -28.31943,-33.12137 -42.18125,-39.26588 -14.64604,-6.49213 -63.58031,-6.49213 -78.22636,0 -13.86183,6.14451 -35.77838,26.5463 -42.18124,39.26588 -12.50015,24.83211 -12.50015,66.85331 0,91.68542 5.80591,11.53371 26.37522,31.46671 39.44626,38.22603 23.42,12.11094 55.25422,12.0768 78.88776,-0.0846 z"
       style="opacity:0.25;fill:#008080;fill-opacity:1;stroke-width:2.85714" />
    <path
       transform="matrix(0.26458333,0,0,0.26458333,27.516668,69.099737)"
       id="path1545"
       d="m 205.9434,507.06384 c -0.0647,-4.507 -4.75154,-39.24257 -7.21412,-53.46597 -1.41846,-8.19275 -3.81724,-10.51617 -17.16725,-16.62803 -18.76446,-8.59066 -21.09776,-8.0102 -49.38269,12.28451 l -21.59577,15.49517 -29.626346,-29.38551 c -16.294489,-16.16203 -30.81746,-31.53543 -32.273269,-34.16309 -2.036246,-3.67531 1.343637,-10.15962 14.649837,-28.10568 18.6212,-25.11443 19.058774,-27.39552 9.598477,-50.0372 -4.817877,-11.5308 -7.728634,-12.71397 -41.217988,-16.75469 L 4.5714235,303.02841 3.7233647,263.07488 C 3.2569324,241.10044 3.6127892,219.06981 4.5141581,214.11793 6.131547,205.23242 6.4232912,205.08914 26.790789,203.1775 c 36.182209,-3.39598 41.636277,-5.72194 47.948783,-20.44842 3.050377,-7.11624 5.546137,-15.68845 5.546137,-19.04936 0,-3.36091 -7.33064,-16.79256 -16.290308,-29.8481 L 47.705092,110.09426 75.808898,81.884596 C 115.46053,42.083618 112.74515,42.863221 139.55571,63.582444 l 22.15857,17.124163 12.8734,-3.318531 c 16.97878,-4.37682 24.99591,-8.868235 26.73556,-14.977978 0.78349,-2.751665 2.95986,-16.735834 4.83637,-31.075928 l 3.41184,-26.0728978 14.64284,-1.7594109 c 27.58501,-3.31447672 81.78033,-2.1474632 81.8423,1.7623486 0.0669,4.2249914 4.85798,39.4862941 7.21412,53.0949031 1.41846,8.192757 3.81723,10.516194 17.16726,16.628031 18.76445,8.590654 21.09777,8.01022 49.38268,-12.284503 l 21.59577,-15.495183 29.62635,29.38552 c 16.29448,16.162035 30.81745,31.535422 32.27325,34.163082 2.03626,3.67532 -1.34363,10.15963 -14.64983,28.1057 -19.00191,25.62788 -19.56062,29.22561 -8.06562,51.9366 5.76605,11.39217 4.44725,10.95679 48.25657,15.93093 l 18.57143,2.10861 0.78028,48.94272 0.78029,48.94273 -22.20886,1.97952 c -35.30923,3.14717 -43.53789,6.45777 -49.68414,19.98914 -8.14335,17.92811 -6.89015,25.75166 7.03725,43.93209 22.91923,29.91811 23.96015,25.01382 -13.29828,62.65394 l -32.76703,33.10268 -23.9524,-18.70337 -23.9524,-18.7034 -17.742,5.44649 c -9.75811,2.99557 -18.92114,7.65731 -20.36231,10.35943 -1.44118,2.70208 -4.09646,17.07963 -5.90063,31.95008 -1.80417,14.87043 -3.879,27.63586 -4.61075,28.36763 -0.73177,0.73174 -22.52932,1.91057 -48.43903,2.6196 -38.75168,1.06046 -47.11861,0.58974 -47.16516,-2.65334 z m 67.19945,-160.56712 c 21.17949,-5.2266 35.45652,-13.81537 51.94406,-31.24854 16.57871,-17.52954 21.503,-30.64397 21.71854,-57.84111 0.22943,-28.96056 -7.30383,-48.38656 -26.01166,-67.07571 -13.90874,-13.89485 -18.969,-16.94839 -35.48082,-21.41047 -23.88141,-6.45361 -53.81878,-4.68327 -72.32852,4.27714 -35.46749,17.16952 -53.45446,58.7439 -45.70365,105.63761 5.27847,31.93557 34.96413,61.44774 67.59081,67.19574 5.23942,0.92306 10.10099,2.25306 10.80349,2.95554 2.14702,2.14703 12.46831,1.21132 27.46775,-2.4902 z"
       style="opacity:1;fill:#008080;fill-opacity:1;stroke-width:2.85714" />
    <path
       transform="matrix(0.26458333,0,0,0.26458333,27.516668,69.099737)"
       id="path1547"
       d="m 208.06293,508.4335 c -0.88935,-1.439 -3.08431,-13.50863 -4.8777,-26.8214 -5.04171,-37.42595 -4.80597,-36.94306 -21.8439,-44.74329 -8.41374,-3.85194 -17.67552,-6.24883 -20.58173,-5.32643 -2.90622,0.9224 -15.45175,8.68134 -27.87896,17.24209 l -22.59493,15.565 L 82.705358,436.9219 C 43.683904,398.11664 44.500132,401.06064 64.630224,371.72815 L 81.326701,347.39892 76.299418,331.45055 C 70.359395,312.60664 64.448324,309.14564 32.922552,306.05287 21.801385,304.96184 11.050898,303.04861 9.0325784,301.80121 4.395793,298.93552 1.2927147,230.49889 5.1411964,215.97899 l 2.650356,-9.9995 26.4384596,-3.25368 c 29.463369,-3.62594 37.651937,-8.51233 43.387292,-25.89062 4.328234,-13.11468 2.414565,-18.99281 -14.736666,-45.26586 L 48.210626,109.09713 78.311546,79.68067 C 98.522201,59.929581 110.53296,50.26421 114.86617,50.26421 c 3.54954,0 15.67056,7.059537 26.9356,15.687863 l 20.48189,15.68786 14.87275,-4.416732 c 22.14312,-6.5758 24.68826,-10.396488 28.89028,-43.369294 L 209.6885,5.2770665 226.83479,3.4849239 c 21.53818,-2.2511857 54.53072,-2.259497 68.0882,-0.017143 l 10.35158,1.7121009 3.56554,26.1135962 c 1.96106,14.362478 4.58571,28.8008 5.83254,32.08516 2.67934,7.05782 29.27592,19.350323 36.74086,16.98104 2.811,-0.892177 15.27863,-8.626391 27.70586,-17.18714 l 22.59491,-15.565002 27.58034,27.427554 c 38.5924,38.3786 37.97637,36.52039 20.45212,61.69149 -19.26175,27.66672 -19.88635,30.4032 -11.24712,49.27374 3.95132,8.63086 8.21966,15.76375 9.48517,15.85088 1.26549,0.0871 14.5152,1.73569 29.44378,3.66348 l 27.14285,3.50507 1.83277,17.05081 c 1.008,9.37794 1.97229,31.25819 2.14286,48.62277 l 0.31009,31.57197 -28.80523,3.1968 c -31.37257,3.48171 -37.60312,6.68531 -44.44626,22.8532 -6.09128,14.39154 -4.7346,21.51211 7.39897,38.83334 18.17392,25.94414 18.39875,26.64623 11.87669,37.0876 -3.15063,5.04397 -17.23263,20.58231 -31.29334,34.52968 l -25.56492,25.35886 -21.01154,-16.54394 c -11.55634,-9.09917 -22.41163,-17.6034 -24.12289,-18.89832 -4.30028,-3.25402 -37.82983,8.45886 -40.90385,14.28898 -1.36915,2.59671 -4.1068,16.65451 -6.08366,31.2396 -1.97689,14.58505 -4.41363,27.02468 -5.41506,27.64357 -4.21051,2.60225 -90.91348,5.02145 -92.42312,2.57883 z m 85.33369,-169.5096 c 21.00697,-10.34172 45.15506,-35.06618 49.98112,-51.17415 1.79288,-5.98412 2.74357,-22.11055 2.13834,-36.27273 -1.31163,-30.69158 -6.28337,-42.4475 -26.55729,-62.7959 -11.44125,-11.4833 -17.93611,-15.43246 -31.71765,-19.28572 -48.49758,-13.55971 -91.25029,2.4386 -112.09067,41.94496 -7.03596,13.33781 -7.7219,17.42998 -7.7219,46.06671 0,29.09674 0.5796,32.41454 7.81198,44.71743 17.80464,30.28722 52.63036,49.53657 84.80836,46.8764 9.33718,-0.77189 22.56704,-4.76969 33.34771,-10.077 z"
       style="opacity:1;fill:#008080;fill-opacity:1;stroke-width:2.85714" />
    <path
       transform="matrix(0.26458333,0,0,0.26458333,27.516668,69.099737)"
       id="path1569"
       d="m 207.29212,506.65321 c -0.76212,-1.98606 -3.18634,-15.66491 -5.38715,-30.39746 -4.57381,-30.61771 -7.93584,-35.581 -28.24126,-41.69203 l -13.3528,-4.0186 -24.97352,16.99272 -24.97353,16.99274 -29.351068,-29.2512 C 64.869704,419.19124 50.899549,403.62681 49.968004,400.69178 48.833686,397.11787 52.852932,388.69324 62.137138,375.18438 79.619975,349.74618 80.559955,347.21135 77.124344,334.76861 71.707386,315.15001 64.797781,310.58144 34.598112,306.65072 7.8260578,303.16615 7.4587038,303.01258 5.6504415,294.54992 2.7679661,281.05996 2.8592684,219.95352 5.7733518,212.2889 c 2.350702,-6.18282 5.2371422,-7.25522 27.1366802,-10.08217 13.4784,-1.73989 27.189694,-4.5996 30.469543,-6.35492 6.059743,-3.24308 16.72904,-23.25423 16.843386,-31.59117 0.03451,-2.51624 -7.24994,-15.86379 -16.187672,-29.66121 L 47.784869,109.5132 78.098669,79.888707 C 98.304312,60.142516 110.5454,50.26421 114.80902,50.26421 c 3.51811,0 15.7331,7.02724 27.14442,15.616088 l 20.74785,15.616092 13.79221,-4.479509 c 21.08565,-6.848311 25.25699,-13.153548 29.23789,-44.194923 1.88049,-14.663332 4.10214,-27.3446047 4.93699,-28.180605 1.98186,-1.9845762 91.50187,-1.9857391 93.50376,-0.00121 0.84265,0.835332 3.41763,14.190037 5.72217,29.677122 4.77851,32.112632 7.94414,36.907077 28.44197,43.076012 l 13.3528,4.018603 24.97351,-16.992729 24.97355,-16.992729 29.35105,29.25118 c 16.14309,16.088149 30.0836,31.559148 30.97892,34.380008 1.04794,3.30179 -3.97112,13.77204 -14.08929,29.39175 -16.83583,25.98993 -16.96654,26.8977 -7.27388,50.51024 3.70994,9.03788 13.0004,12.22121 44.32434,15.18752 l 20.35586,1.92765 1.76217,14.66615 c 0.96917,8.06638 1.77334,30.18114 1.787,49.14392 l 0.0257,34.47777 -27.70631,3.2422 c -32.021,3.74711 -39.77789,8.07311 -46.23612,25.78586 -4.12291,11.30774 -4.02114,12.63683 1.84826,24.13443 3.41629,6.69222 10.28932,17.56717 15.27337,24.16651 8.19432,10.85006 8.7376,12.78189 5.67429,20.17737 -1.86323,4.4982 -16.06726,20.81054 -31.56454,36.24969 l -28.17689,28.07114 -22.66597,-17.53423 c -12.46717,-9.64383 -25.52906,-17.53423 -29.02726,-17.53423 -3.49823,0 -12.67483,2.7164 -20.39246,6.03643 -15.36142,6.60832 -13.91657,3.44046 -20.70342,45.39214 l -3.46669,21.42858 -17.14286,1.83277 c -32.0411,3.42554 -75.77187,2.77023 -77.2793,-1.15806 z m 80.02416,-165.17129 c 19.9064,-7.45825 42.34523,-27.88102 51.74709,-47.09771 7.11037,-14.5331 7.59848,-17.78056 6.32682,-42.09249 -1.4242,-27.22768 -4.80511,-37.28758 -18.6554,-55.50874 -24.80165,-32.62855 -83.24589,-41.6866 -120.47196,-18.67149 -32.57896,20.14203 -47.97989,64.6894 -37.18526,107.55878 4.09691,16.27028 21.08397,38.22057 37.37119,48.29017 26.80159,16.57017 50.76695,18.79917 80.86752,7.52148 z"
       style="opacity:1;fill:#806897;fill-opacity:1;stroke-width:2.85714" />
  </g>
</svg>
