/* XPM */
static char * gramps_xpm[] = {
"48 48 5 1",
" 	c None",
".	c #999999",
"+	c #FFFFCC",
"@	c #000000",
"#	c #CCCCCC",
"                                                ",
"                                                ",
"                                                ",
"                                                ",
"                                                ",
"                                                ",
"                                  ..........    ",
"                                  .++++++++.    ",
"                                  .++++++++.    ",
"                               @@@.++++++++.    ",
"                               @##.++++++++.    ",
"                               @# .++++++++.    ",
"                  ..........   @# ..........    ",
"                  .++++++++.   @#               ",
"                  .++++++++.   @#               ",
"               @@@.++++++++.@@@@#               ",
"               @##.++++++++.###@# ..........    ",
"               @# .++++++++.   @# .++++++++.    ",
"               @# ..........   @# .++++++++.    ",
"               @#              @@@.++++++++.    ",
"               @#               ##.++++++++.    ",
"               @#                 .++++++++.    ",
"  ..........   @#                 ..........    ",
"  .++++++++.   @#                               ",
"  .++++++++.   @#                               ",
"  .++++++++.@@@@#                               ",
"  .++++++++.###@#                               ",
"  .++++++++.   @#                 ..........    ",
"  ..........   @#                 .++++++++.    ",
"               @#                 .++++++++.    ",
"               @#              @@@.++++++++.    ",
"               @#              @##.++++++++.    ",
"               @# ..........   @# .++++++++.    ",
"               @# .++++++++.   @# ..........    ",
"               @# .++++++++.   @#               ",
"               @@@.++++++++.@@@@#               ",
"                ##.++++++++.###@#               ",
"                  .++++++++.   @# ..........    ",
"                  ..........   @# .++++++++.    ",
"                               @# .++++++++.    ",
"                               @@@.++++++++.    ",
"                                ##.++++++++.    ",
"                                  .++++++++.    ",
"                                  ..........    ",
"                                                ",
"                                                ",
"                                                ",
"                                                "};
