/* XPM */
static char * gramps_xpm[] = {
"48 48 50 1",
" 	c None",
".	c #B39169",
"+	c #E8D3B9",
"@	c #E8D3B8",
"#	c #E8D2B7",
"$	c #E7D2B6",
"%	c #E7D1B6",
"&	c #E7D1B5",
"*	c #E7D1B4",
"=	c #000000",
"-	c #E7D0B4",
";	c #E6D0B3",
">	c #EAD7BE",
",	c #EAD6BE",
"'	c #EAD6BD",
")	c #E9D6BC",
"!	c #E9D5BC",
"~	c #E9D5BB",
"{	c #E9D4BA",
"]	c #E8D4B9",
"^	c #E6CFB2",
"/	c #E6CFB1",
"(	c #E6CEB1",
"_	c #E5CEB0",
":	c #E5CDAF",
"<	c #E5CDAE",
"[	c #E5CCAE",
"}	c #EBD9C1",
"|	c #EBD8C1",
"1	c #EBD8C0",
"2	c #EAD8C0",
"3	c #EAD7BF",
"4	c #E4CCAD",
"5	c #E4CCAC",
"6	c #E4CBAC",
"7	c #E4CBAB",
"8	c #E4CAAA",
"9	c #E3CAAA",
"0	c #E3CAA9",
"a	c #E3C9A9",
"b	c #E3C9A8",
"c	c #E3C8A7",
"d	c #E2C8A7",
"e	c #E2C8A6",
"f	c #E2C7A6",
"g	c #E2C7A5",
"h	c #E2C7A4",
"i	c #E2C6A4",
"j	c #E1C6A3",
"k	c #E1C5A2",
"                                                ",
"                                                ",
"                                                ",
"                                                ",
"                                  ..........    ",
"                                  .+@@##$%&.    ",
"                                  .@@##$%&*.=   ",
"                               ===.@##$%&*-.=   ",
"                               =  .##$%&*-;.=   ",
"                               =  .#$%&*-;;.=   ",
"                  ..........   =  ..........=   ",
"                  .>,')!~~{.   =    ========    ",
"                  .,')!~~{{.=  =                ",
"               ===.')!~~{{].====                ",
"               =  .)!~~{{]+.=  =  ..........    ",
"               =  .!~~{{]+@.=  =  .;;^^/(__.    ",
"               =  ..........=  =  .;^^/(__:.=   ",
"               =    ========   ===.^^/(__::.=   ",
"               =                  .^/(__::<.=   ",
"               =                  ./(__::<[.=   ",
"  ..........   =                  ..........=   ",
"  .}|1233>,.   =                    ========    ",
"  .|1233>,'.=  =                                ",
"  .1233>,').====                                ",
"  .233>,')!.=  =                                ",
"  .33>,')!~.=  =                  ..........    ",
"  ..........=  =                  .[4567789.    ",
"    ========   =                  .45677890.=   ",
"               =               ===.5677890a.=   ",
"               =               =  .677890ab.=   ",
"               =  ..........   =  .77890abb.=   ",
"               =  .;;^^/(__.   =  ..........=   ",
"               =  .;^^/(__:.=  =    ========    ",
"               ===.^^/(__::.====                ",
"                  .^/(__::<.=  =                ",
"                  ./(__::<[.=  =  ..........    ",
"                  ..........=  =  .bbcdefgh.    ",
"                    ========   =  .bcdefghi.=   ",
"                               ===.cdefghij.=   ",
"                                  .defghijj.=   ",
"                                  .efghijjk.=   ",
"                                  ..........=   ",
"                                    ========    ",
"                                                ",
"                                                ",
"                                                ",
"                                                ",
"                                                "};
